<?xml version="1.0" encoding="UTF-8" standalone="no"?>
<!DOCTYPE svg PUBLIC "-//W3C//DTD SVG 1.1//EN"
 "http://www.w3.org/Graphics/SVG/1.1/DTD/svg11.dtd">
<!-- Generated by graphviz version 2.43.0 (0)
 -->
<!-- Title: AFD Pages: 1 -->
<svg width="1070pt" height="1684pt"
 viewBox="0.00 0.00 1069.50 1684.00" xmlns="http://www.w3.org/2000/svg" xmlns:xlink="http://www.w3.org/1999/xlink">
<g id="graph0" class="graph" transform="scale(1 1) rotate(0) translate(4 1680)">
<title>AFD</title>
<polygon fill="white" stroke="transparent" points="-4,4 -4,-1680 1065.5,-1680 1065.5,4 -4,4"/>
<!-- q0 -->
<g id="node1" class="node">
<title>q0</title>
<ellipse fill="none" stroke="black" cx="27" cy="-833" rx="23" ry="23"/>
<text text-anchor="middle" x="27" y="-829.3" font-family="Times,serif" font-size="14.00">q0</text>
</g>
<!-- q0&#45;&gt;q0 -->
<g id="edge1" class="edge">
<title>q0&#45;&gt;q0</title>
<path fill="none" stroke="black" d="M16.51,-853.55C14.89,-864.17 18.39,-873.75 27,-873.75 32.65,-873.75 36.1,-869.62 37.35,-863.79"/>
<polygon fill="black" stroke="black" points="40.85,-863.6 37.49,-853.55 33.85,-863.5 40.85,-863.6"/>
<text text-anchor="middle" x="27" y="-877.55" font-family="Times,serif" font-size="14.00">Σ&#45;a&#45;v&#45;m</text>
</g>
<!-- q1 -->
<g id="node2" class="node">
<title>q1</title>
<ellipse fill="none" stroke="black" cx="150.35" cy="-782" rx="23" ry="23"/>
<text text-anchor="middle" x="150.35" y="-778.3" font-family="Times,serif" font-size="14.00">q1</text>
</g>
<!-- q0&#45;&gt;q1 -->
<g id="edge2" class="edge">
<title>q0&#45;&gt;q1</title>
<path fill="none" stroke="black" d="M44.92,-818.53C51.67,-813.34 59.74,-807.84 67.75,-804 83.44,-796.48 102.11,-791.2 117.63,-787.71"/>
<polygon fill="black" stroke="black" points="118.73,-791.05 127.8,-785.57 117.29,-784.2 118.73,-791.05"/>
<text text-anchor="middle" x="85.75" y="-807.8" font-family="Times,serif" font-size="14.00">a</text>
</g>
<!-- q17 -->
<g id="node15" class="node">
<title>q17</title>
<ellipse fill="none" stroke="black" cx="150.35" cy="-1380" rx="28.7" ry="28.7"/>
<text text-anchor="middle" x="150.35" y="-1376.3" font-family="Times,serif" font-size="14.00">q17</text>
</g>
<!-- q0&#45;&gt;q17 -->
<g id="edge34" class="edge">
<title>q0&#45;&gt;q17</title>
<path fill="none" stroke="black" d="M28.56,-855.94C31.01,-948.74 41.77,-1293.32 67.75,-1334 70.78,-1338.75 94.41,-1351.82 115.47,-1362.82"/>
<polygon fill="black" stroke="black" points="114.09,-1366.05 124.58,-1367.54 117.31,-1359.83 114.09,-1366.05"/>
<text text-anchor="middle" x="85.75" y="-1359.8" font-family="Times,serif" font-size="14.00">v</text>
</g>
<!-- q31 -->
<g id="node29" class="node">
<title>q31</title>
<ellipse fill="none" stroke="black" cx="150.35" cy="-192" rx="28.7" ry="28.7"/>
<text text-anchor="middle" x="150.35" y="-188.3" font-family="Times,serif" font-size="14.00">q31</text>
</g>
<!-- q0&#45;&gt;q31 -->
<g id="edge62" class="edge">
<title>q0&#45;&gt;q31</title>
<path fill="none" stroke="black" d="M28.01,-809.96C28.23,-704.1 31.36,-267.61 67.75,-220 78.12,-206.43 95.44,-199.39 111.46,-195.76"/>
<polygon fill="black" stroke="black" points="112.53,-199.12 121.71,-193.83 111.24,-192.24 112.53,-199.12"/>
<text text-anchor="middle" x="85.75" y="-223.8" font-family="Times,serif" font-size="14.00">m</text>
</g>
<!-- q1&#45;&gt;q0 -->
<g id="edge11" class="edge">
<title>q1&#45;&gt;q0</title>
<path fill="none" stroke="black" d="M129.33,-773.27C112.01,-767.13 86.82,-761.66 67.75,-772 55.56,-778.61 46.52,-790.75 40.17,-802.47"/>
<polygon fill="black" stroke="black" points="36.91,-801.15 35.64,-811.67 43.2,-804.24 36.91,-801.15"/>
<text text-anchor="middle" x="85.75" y="-775.8" font-family="Times,serif" font-size="14.00">Σ&#45;c&#45;g</text>
</g>
<!-- q2 -->
<g id="node3" class="node">
<title>q2</title>
<ellipse fill="none" stroke="black" cx="267.54" cy="-909" rx="23" ry="23"/>
<text text-anchor="middle" x="267.54" y="-905.3" font-family="Times,serif" font-size="14.00">q2</text>
</g>
<!-- q1&#45;&gt;q2 -->
<g id="edge3" class="edge">
<title>q1&#45;&gt;q2</title>
<path fill="none" stroke="black" d="M163.94,-800.51C172.69,-812.95 184.9,-829.46 196.94,-843 211,-858.81 228.25,-875.19 242.06,-887.67"/>
<polygon fill="black" stroke="black" points="239.95,-890.48 249.74,-894.54 244.62,-885.26 239.95,-890.48"/>
<text text-anchor="middle" x="208.94" y="-870.8" font-family="Times,serif" font-size="14.00">c</text>
</g>
<!-- q10 -->
<g id="node9" class="node">
<title>q10</title>
<ellipse fill="none" stroke="black" cx="267.54" cy="-623" rx="28.7" ry="28.7"/>
<text text-anchor="middle" x="267.54" y="-619.3" font-family="Times,serif" font-size="14.00">q10</text>
</g>
<!-- q1&#45;&gt;q10 -->
<g id="edge20" class="edge">
<title>q1&#45;&gt;q10</title>
<path fill="none" stroke="black" d="M164.56,-763.76C183.93,-737.03 220.28,-686.85 243.94,-654.19"/>
<polygon fill="black" stroke="black" points="246.93,-656.04 249.96,-645.88 241.26,-651.93 246.93,-656.04"/>
<text text-anchor="middle" x="208.94" y="-719.8" font-family="Times,serif" font-size="14.00">g</text>
</g>
<!-- q2&#45;&gt;q0 -->
<g id="edge12" class="edge">
<title>q2&#45;&gt;q0</title>
<path fill="none" stroke="black" d="M246.51,-917.75C208.27,-932.98 123.7,-959.45 67.75,-923 48.28,-910.32 38.28,-885.7 33.18,-865.42"/>
<polygon fill="black" stroke="black" points="36.58,-864.59 30.99,-855.59 29.75,-866.11 36.58,-864.59"/>
<text text-anchor="middle" x="150.35" y="-944.8" font-family="Times,serif" font-size="14.00">Σ&#45;o&#45;e</text>
</g>
<!-- q3 -->
<g id="node4" class="node">
<title>q3</title>
<ellipse fill="none" stroke="black" cx="388.74" cy="-1074" rx="23" ry="23"/>
<text text-anchor="middle" x="388.74" y="-1070.3" font-family="Times,serif" font-size="14.00">q3</text>
</g>
<!-- q2&#45;&gt;q3 -->
<g id="edge4" class="edge">
<title>q2&#45;&gt;q3</title>
<path fill="none" stroke="black" d="M281.47,-927.31C299.11,-952.23 331.77,-998.17 360.14,-1037 362.69,-1040.49 365.39,-1044.16 368.07,-1047.77"/>
<polygon fill="black" stroke="black" points="365.41,-1050.06 374.19,-1055.99 371.02,-1045.88 365.41,-1050.06"/>
<text text-anchor="middle" x="328.14" y="-1012.8" font-family="Times,serif" font-size="14.00">o</text>
</g>
<!-- q6 -->
<g id="node6" class="node">
<title>q6</title>
<ellipse fill="none" stroke="black" cx="388.74" cy="-815" rx="23" ry="23"/>
<text text-anchor="middle" x="388.74" y="-811.3" font-family="Times,serif" font-size="14.00">q6</text>
</g>
<!-- q2&#45;&gt;q6 -->
<g id="edge7" class="edge">
<title>q2&#45;&gt;q6</title>
<path fill="none" stroke="black" d="M289.91,-904.5C305.59,-900.38 326.75,-893.06 342.14,-881 354.66,-871.18 365.09,-856.98 372.8,-844.26"/>
<polygon fill="black" stroke="black" points="375.97,-845.76 377.92,-835.35 369.9,-842.27 375.97,-845.76"/>
<text text-anchor="middle" x="328.14" y="-898.8" font-family="Times,serif" font-size="14.00">e</text>
</g>
<!-- q3&#45;&gt;q0 -->
<g id="edge13" class="edge">
<title>q3&#45;&gt;q0</title>
<path fill="none" stroke="black" d="M365.6,-1075.68C300.49,-1080.12 111.46,-1089.29 67.75,-1050 41.05,-1025.99 32.14,-920.75 29.28,-866.14"/>
<polygon fill="black" stroke="black" points="32.76,-865.75 28.79,-855.93 25.77,-866.09 32.76,-865.75"/>
<text text-anchor="middle" x="208.94" y="-1082.8" font-family="Times,serif" font-size="14.00">Σ&#45;s</text>
</g>
<!-- q4 -->
<g id="node5" class="node">
<title>q4</title>
<ellipse fill="none" stroke="black" cx="505.93" cy="-1112" rx="23" ry="23"/>
<text text-anchor="middle" x="505.93" y="-1108.3" font-family="Times,serif" font-size="14.00">q4</text>
</g>
<!-- q3&#45;&gt;q4 -->
<g id="edge5" class="edge">
<title>q3&#45;&gt;q4</title>
<path fill="none" stroke="black" d="M410.81,-1080.47C424.64,-1084.77 443.1,-1090.59 459.33,-1096 464.28,-1097.65 469.51,-1099.44 474.6,-1101.21"/>
<polygon fill="black" stroke="black" points="473.5,-1104.53 484.09,-1104.53 475.81,-1097.92 473.5,-1104.53"/>
<text text-anchor="middle" x="447.33" y="-1099.8" font-family="Times,serif" font-size="14.00">s</text>
</g>
<!-- q4&#45;&gt;q0 -->
<g id="edge14" class="edge">
<title>q4&#45;&gt;q0</title>
<path fill="none" stroke="black" d="M483.09,-1113.69C402.38,-1119.42 122.89,-1134.39 67.75,-1072 41.2,-1041.96 32.15,-924.13 29.26,-865.91"/>
<polygon fill="black" stroke="black" points="32.75,-865.6 28.79,-855.77 25.75,-865.92 32.75,-865.6"/>
<text text-anchor="middle" x="267.54" y="-1122.8" font-family="Times,serif" font-size="14.00">Σ&#45;o</text>
</g>
<!-- q5 -->
<g id="node36" class="node">
<title>q5</title>
<ellipse fill="none" stroke="black" cx="609.13" cy="-1143" rx="22.96" ry="22.96"/>
<ellipse fill="none" stroke="black" cx="609.13" cy="-1143" rx="27" ry="27"/>
<text text-anchor="middle" x="609.13" y="-1139.3" font-family="Times,serif" font-size="14.00">q5</text>
</g>
<!-- q4&#45;&gt;q5 -->
<g id="edge6" class="edge">
<title>q4&#45;&gt;q5</title>
<path fill="none" stroke="black" d="M527.9,-1118.42C541.1,-1122.47 558.46,-1127.78 573.65,-1132.44"/>
<polygon fill="black" stroke="black" points="572.67,-1135.8 583.25,-1135.38 574.72,-1129.11 572.67,-1135.8"/>
<text text-anchor="middle" x="557.53" y="-1131.8" font-family="Times,serif" font-size="14.00">o</text>
</g>
<!-- q6&#45;&gt;q0 -->
<g id="edge16" class="edge">
<title>q6&#45;&gt;q0</title>
<path fill="none" stroke="black" d="M365.6,-816.11C304.31,-819.17 132.15,-827.79 60.22,-831.39"/>
<polygon fill="black" stroke="black" points="59.77,-827.91 49.96,-831.9 60.12,-834.9 59.77,-827.91"/>
<text text-anchor="middle" x="208.94" y="-827.8" font-family="Times,serif" font-size="14.00">Σ&#45;c</text>
</g>
<!-- q7 -->
<g id="node7" class="node">
<title>q7</title>
<ellipse fill="none" stroke="black" cx="505.93" cy="-815" rx="23" ry="23"/>
<text text-anchor="middle" x="505.93" y="-811.3" font-family="Times,serif" font-size="14.00">q7</text>
</g>
<!-- q6&#45;&gt;q7 -->
<g id="edge8" class="edge">
<title>q6&#45;&gt;q7</title>
<path fill="none" stroke="black" d="M411.67,-815C428.97,-815 453.34,-815 472.82,-815"/>
<polygon fill="black" stroke="black" points="473.07,-818.5 483.07,-815 473.07,-811.5 473.07,-818.5"/>
<text text-anchor="middle" x="447.33" y="-818.8" font-family="Times,serif" font-size="14.00">c</text>
</g>
<!-- q7&#45;&gt;q0 -->
<g id="edge17" class="edge">
<title>q7&#45;&gt;q0</title>
<path fill="none" stroke="black" d="M484.77,-806.3C467.25,-799.06 441.03,-789.01 417.33,-783 289.2,-750.5 253.15,-735.58 121.75,-750 97.31,-752.68 87.47,-747.33 67.75,-762 54.39,-771.93 44.91,-787.76 38.57,-801.95"/>
<polygon fill="black" stroke="black" points="35.24,-800.85 34.67,-811.43 41.71,-803.51 35.24,-800.85"/>
<text text-anchor="middle" x="267.54" y="-756.8" font-family="Times,serif" font-size="14.00">Σ&#45;h</text>
</g>
<!-- q8 -->
<g id="node8" class="node">
<title>q8</title>
<ellipse fill="none" stroke="black" cx="609.13" cy="-866" rx="23" ry="23"/>
<text text-anchor="middle" x="609.13" y="-862.3" font-family="Times,serif" font-size="14.00">q8</text>
</g>
<!-- q7&#45;&gt;q8 -->
<g id="edge9" class="edge">
<title>q7&#45;&gt;q8</title>
<path fill="none" stroke="black" d="M527.67,-822.14C538.31,-826.07 551.34,-831.29 562.53,-837 568.82,-840.21 575.35,-844.04 581.44,-847.84"/>
<polygon fill="black" stroke="black" points="579.66,-850.86 589.96,-853.33 583.44,-844.97 579.66,-850.86"/>
<text text-anchor="middle" x="557.53" y="-840.8" font-family="Times,serif" font-size="14.00">h</text>
</g>
<!-- q8&#45;&gt;q0 -->
<g id="edge18" class="edge">
<title>q8&#45;&gt;q0</title>
<path fill="none" stroke="black" d="M586.33,-865.78C498.49,-864.78 170.25,-860.05 67.75,-844 64.83,-843.54 61.82,-842.95 58.82,-842.27"/>
<polygon fill="black" stroke="black" points="59.4,-838.81 48.84,-839.73 57.67,-845.59 59.4,-838.81"/>
<text text-anchor="middle" x="328.14" y="-863.8" font-family="Times,serif" font-size="14.00">Σ&#45;o</text>
</g>
<!-- q9 -->
<g id="node37" class="node">
<title>q9</title>
<ellipse fill="none" stroke="black" cx="716.32" cy="-892" rx="22.96" ry="22.96"/>
<ellipse fill="none" stroke="black" cx="716.32" cy="-892" rx="27" ry="27"/>
<text text-anchor="middle" x="716.32" y="-888.3" font-family="Times,serif" font-size="14.00">q9</text>
</g>
<!-- q8&#45;&gt;q9 -->
<g id="edge10" class="edge">
<title>q8&#45;&gt;q9</title>
<path fill="none" stroke="black" d="M631.41,-871.26C645.3,-874.69 663.77,-879.26 679.84,-883.23"/>
<polygon fill="black" stroke="black" points="679.44,-886.74 689.99,-885.74 681.12,-879.94 679.44,-886.74"/>
<text text-anchor="middle" x="662.72" y="-883.8" font-family="Times,serif" font-size="14.00">o</text>
</g>
<!-- q10&#45;&gt;q0 -->
<g id="edge27" class="edge">
<title>q10&#45;&gt;q0</title>
<path fill="none" stroke="black" d="M239.61,-615.66C196.31,-605.69 111.66,-594.05 67.75,-641 46.52,-663.7 35.35,-751.7 30.69,-800.3"/>
<polygon fill="black" stroke="black" points="27.2,-800.04 29.77,-810.32 34.17,-800.68 27.2,-800.04"/>
<text text-anchor="middle" x="150.35" y="-614.8" font-family="Times,serif" font-size="14.00">Σ&#45;r</text>
</g>
<!-- q11 -->
<g id="node10" class="node">
<title>q11</title>
<ellipse fill="none" stroke="black" cx="388.74" cy="-580" rx="28.7" ry="28.7"/>
<text text-anchor="middle" x="388.74" y="-576.3" font-family="Times,serif" font-size="14.00">q11</text>
</g>
<!-- q10&#45;&gt;q11 -->
<g id="edge21" class="edge">
<title>q10&#45;&gt;q11</title>
<path fill="none" stroke="black" d="M294.7,-613.56C311.54,-607.49 333.66,-599.51 352.1,-592.85"/>
<polygon fill="black" stroke="black" points="353.42,-596.1 361.64,-589.41 351.04,-589.52 353.42,-596.1"/>
<text text-anchor="middle" x="328.14" y="-608.8" font-family="Times,serif" font-size="14.00">r</text>
</g>
<!-- q11&#45;&gt;q0 -->
<g id="edge28" class="edge">
<title>q11&#45;&gt;q0</title>
<path fill="none" stroke="black" d="M360.64,-572.8C298.74,-558.17 146.24,-532.75 67.75,-613 42.31,-639.01 32.81,-744.94 29.55,-799.76"/>
<polygon fill="black" stroke="black" points="26.04,-799.83 28.98,-810.01 33.03,-800.22 26.04,-799.83"/>
<text text-anchor="middle" x="208.94" y="-561.8" font-family="Times,serif" font-size="14.00">Σ&#45;e</text>
</g>
<!-- q12 -->
<g id="node11" class="node">
<title>q12</title>
<ellipse fill="none" stroke="black" cx="505.93" cy="-534" rx="28.7" ry="28.7"/>
<text text-anchor="middle" x="505.93" y="-530.3" font-family="Times,serif" font-size="14.00">q12</text>
</g>
<!-- q11&#45;&gt;q12 -->
<g id="edge22" class="edge">
<title>q11&#45;&gt;q12</title>
<path fill="none" stroke="black" d="M415.59,-569.68C431.59,-563.28 452.36,-554.99 469.84,-548.01"/>
<polygon fill="black" stroke="black" points="471.18,-551.25 479.16,-544.29 468.58,-544.75 471.18,-551.25"/>
<text text-anchor="middle" x="447.33" y="-564.8" font-family="Times,serif" font-size="14.00">e</text>
</g>
<!-- q12&#45;&gt;q0 -->
<g id="edge29" class="edge">
<title>q12&#45;&gt;q0</title>
<path fill="none" stroke="black" d="M477.54,-529.9C454.24,-526.78 419.87,-523 389.74,-523 149.35,-523 149.35,-523 149.35,-523 104.33,-523 91.17,-544.56 67.75,-583 45.9,-618.86 34.52,-740.5 30.16,-799.86"/>
<polygon fill="black" stroke="black" points="26.64,-799.97 29.42,-810.19 33.62,-800.46 26.64,-799.97"/>
<text text-anchor="middle" x="267.54" y="-526.8" font-family="Times,serif" font-size="14.00">Σ&#45;s</text>
</g>
<!-- q13 -->
<g id="node12" class="node">
<title>q13</title>
<ellipse fill="none" stroke="black" cx="609.13" cy="-500" rx="28.7" ry="28.7"/>
<text text-anchor="middle" x="609.13" y="-496.3" font-family="Times,serif" font-size="14.00">q13</text>
</g>
<!-- q12&#45;&gt;q13 -->
<g id="edge23" class="edge">
<title>q12&#45;&gt;q13</title>
<path fill="none" stroke="black" d="M533.25,-525.16C544.99,-521.21 559.01,-516.5 571.73,-512.23"/>
<polygon fill="black" stroke="black" points="573.22,-515.42 581.58,-508.92 570.99,-508.79 573.22,-515.42"/>
<text text-anchor="middle" x="557.53" y="-521.8" font-family="Times,serif" font-size="14.00">s</text>
</g>
<!-- q13&#45;&gt;q0 -->
<g id="edge30" class="edge">
<title>q13&#45;&gt;q0</title>
<path fill="none" stroke="black" d="M588.88,-479.69C569.9,-461.94 539.14,-439 506.93,-439 149.35,-439 149.35,-439 149.35,-439 111.54,-439 91.98,-433.99 67.75,-463 46.35,-488.62 33.6,-714 29.48,-799.92"/>
<polygon fill="black" stroke="black" points="25.97,-800 28.99,-810.15 32.96,-800.33 25.97,-800"/>
<text text-anchor="middle" x="328.14" y="-442.8" font-family="Times,serif" font-size="14.00">Σ&#45;i</text>
</g>
<!-- q13&#45;&gt;q0 -->
<g id="edge70" class="edge">
<title>q13&#45;&gt;q0</title>
<path fill="none" stroke="black" d="M581.86,-490.65C561.65,-484.28 532.87,-477 506.93,-477 149.35,-477 149.35,-477 149.35,-477 105.61,-477 90.78,-494.82 67.75,-532 40.35,-576.24 31.57,-731.28 28.99,-799.9"/>
<polygon fill="black" stroke="black" points="25.48,-800.02 28.62,-810.14 32.48,-800.27 25.48,-800.02"/>
<text text-anchor="middle" x="328.14" y="-480.8" font-family="Times,serif" font-size="14.00">Σ&#45;a</text>
</g>
<!-- q14 -->
<g id="node13" class="node">
<title>q14</title>
<ellipse fill="none" stroke="black" cx="716.32" cy="-592" rx="28.7" ry="28.7"/>
<text text-anchor="middle" x="716.32" y="-588.3" font-family="Times,serif" font-size="14.00">q14</text>
</g>
<!-- q13&#45;&gt;q14 -->
<g id="edge24" class="edge">
<title>q13&#45;&gt;q14</title>
<path fill="none" stroke="black" d="M631.16,-518.4C647.07,-532.31 669.1,-551.57 686.62,-566.9"/>
<polygon fill="black" stroke="black" points="684.49,-569.69 694.32,-573.64 689.1,-564.42 684.49,-569.69"/>
<text text-anchor="middle" x="662.72" y="-554.8" font-family="Times,serif" font-size="14.00">i</text>
</g>
<!-- q14&#45;&gt;q0 -->
<g id="edge31" class="edge">
<title>q14&#45;&gt;q0</title>
<path fill="none" stroke="black" d="M687.97,-597.33C621.26,-610.14 444.77,-642.94 296.14,-661 195.06,-673.28 145.73,-613.53 67.75,-679 49.36,-694.43 37.62,-759.94 31.97,-800.38"/>
<polygon fill="black" stroke="black" points="28.5,-799.95 30.64,-810.32 35.44,-800.88 28.5,-799.95"/>
<text text-anchor="middle" x="388.74" y="-655.8" font-family="Times,serif" font-size="14.00">Σ&#45;ó</text>
</g>
<!-- q15 -->
<g id="node14" class="node">
<title>q15</title>
<ellipse fill="none" stroke="black" cx="818.51" cy="-592" rx="28.7" ry="28.7"/>
<text text-anchor="middle" x="818.51" y="-588.3" font-family="Times,serif" font-size="14.00">q15</text>
</g>
<!-- q14&#45;&gt;q15 -->
<g id="edge25" class="edge">
<title>q14&#45;&gt;q15</title>
<path fill="none" stroke="black" d="M744.96,-592C755.61,-592 767.96,-592 779.41,-592"/>
<polygon fill="black" stroke="black" points="779.61,-595.5 789.61,-592 779.61,-588.5 779.61,-595.5"/>
<text text-anchor="middle" x="767.42" y="-595.8" font-family="Times,serif" font-size="14.00">ó</text>
</g>
<!-- q15&#45;&gt;q0 -->
<g id="edge32" class="edge">
<title>q15&#45;&gt;q0</title>
<path fill="none" stroke="black" d="M815.47,-563.41C809.94,-510.12 789.78,-401 717.32,-401 149.35,-401 149.35,-401 149.35,-401 109.88,-401 91.08,-404.18 67.75,-436 46.4,-465.12 33.46,-710.2 29.39,-800.11"/>
<polygon fill="black" stroke="black" points="25.89,-800.13 28.94,-810.28 32.88,-800.44 25.89,-800.13"/>
<text text-anchor="middle" x="447.33" y="-404.8" font-family="Times,serif" font-size="14.00">Σ&#45;n</text>
</g>
<!-- q16 -->
<g id="node38" class="node">
<title>q16</title>
<ellipse fill="none" stroke="black" cx="925.71" cy="-696" rx="28.68" ry="28.68"/>
<ellipse fill="none" stroke="black" cx="925.71" cy="-696" rx="32.7" ry="32.7"/>
<text text-anchor="middle" x="925.71" y="-692.3" font-family="Times,serif" font-size="14.00">q16</text>
</g>
<!-- q15&#45;&gt;q16 -->
<g id="edge26" class="edge">
<title>q15&#45;&gt;q16</title>
<path fill="none" stroke="black" d="M839.8,-612.05C855.37,-627.44 877.1,-648.93 894.68,-666.31"/>
<polygon fill="black" stroke="black" points="892.36,-668.94 901.93,-673.48 897.28,-663.96 892.36,-668.94"/>
<text text-anchor="middle" x="870.11" y="-647.8" font-family="Times,serif" font-size="14.00">n</text>
</g>
<!-- q17&#45;&gt;q0 -->
<g id="edge41" class="edge">
<title>q17&#45;&gt;q0</title>
<path fill="none" stroke="black" d="M122.06,-1385.43C104.11,-1387.28 81.47,-1386.06 67.75,-1372 32.39,-1335.78 28.4,-977.65 28.02,-866.04"/>
<polygon fill="black" stroke="black" points="31.52,-866.01 27.99,-856.02 24.52,-866.03 31.52,-866.01"/>
<text text-anchor="middle" x="85.75" y="-1388.8" font-family="Times,serif" font-size="14.00">Σ&#45;i</text>
</g>
<!-- q18 -->
<g id="node16" class="node">
<title>q18</title>
<ellipse fill="none" stroke="black" cx="267.54" cy="-1419" rx="28.7" ry="28.7"/>
<text text-anchor="middle" x="267.54" y="-1415.3" font-family="Times,serif" font-size="14.00">q18</text>
</g>
<!-- q17&#45;&gt;q18 -->
<g id="edge35" class="edge">
<title>q17&#45;&gt;q18</title>
<path fill="none" stroke="black" d="M177.77,-1388.95C193.43,-1394.25 213.49,-1401.04 230.57,-1406.82"/>
<polygon fill="black" stroke="black" points="229.64,-1410.2 240.24,-1410.09 231.89,-1403.57 229.64,-1410.2"/>
<text text-anchor="middle" x="208.94" y="-1405.8" font-family="Times,serif" font-size="14.00">i</text>
</g>
<!-- q18&#45;&gt;q0 -->
<g id="edge42" class="edge">
<title>q18&#45;&gt;q0</title>
<path fill="none" stroke="black" d="M240.01,-1427.17C196.12,-1438.84 109.11,-1453.78 67.75,-1404 33.3,-1362.54 28.69,-981.17 28.09,-865.87"/>
<polygon fill="black" stroke="black" points="31.59,-865.85 28.04,-855.87 24.59,-865.88 31.59,-865.85"/>
<text text-anchor="middle" x="150.35" y="-1441.8" font-family="Times,serif" font-size="14.00">Σ&#45;c&#45;o</text>
</g>
<!-- q19 -->
<g id="node17" class="node">
<title>q19</title>
<ellipse fill="none" stroke="black" cx="388.74" cy="-1518" rx="28.7" ry="28.7"/>
<text text-anchor="middle" x="388.74" y="-1514.3" font-family="Times,serif" font-size="14.00">q19</text>
</g>
<!-- q18&#45;&gt;q19 -->
<g id="edge36" class="edge">
<title>q18&#45;&gt;q19</title>
<path fill="none" stroke="black" d="M296.34,-1420.06C311.19,-1421.86 329.04,-1426.14 342.14,-1436 357.26,-1447.38 368.05,-1465.32 375.32,-1481.53"/>
<polygon fill="black" stroke="black" points="372.12,-1482.93 379.2,-1490.8 378.57,-1480.23 372.12,-1482.93"/>
<text text-anchor="middle" x="328.14" y="-1439.8" font-family="Times,serif" font-size="14.00">c</text>
</g>
<!-- q24 -->
<g id="node22" class="node">
<title>q24</title>
<ellipse fill="none" stroke="black" cx="388.74" cy="-1258" rx="28.7" ry="28.7"/>
<text text-anchor="middle" x="388.74" y="-1254.3" font-family="Times,serif" font-size="14.00">q24</text>
</g>
<!-- q18&#45;&gt;q24 -->
<g id="edge48" class="edge">
<title>q18&#45;&gt;q24</title>
<path fill="none" stroke="black" d="M287.55,-1397.97C302.94,-1380.55 324.83,-1354.86 342.14,-1331 351.24,-1318.44 360.46,-1304.07 368.2,-1291.41"/>
<polygon fill="black" stroke="black" points="371.38,-1292.92 373.56,-1282.55 365.39,-1289.3 371.38,-1292.92"/>
<text text-anchor="middle" x="328.14" y="-1368.8" font-family="Times,serif" font-size="14.00">o</text>
</g>
<!-- q19&#45;&gt;q0 -->
<g id="edge43" class="edge">
<title>q19&#45;&gt;q0</title>
<path fill="none" stroke="black" d="M360.29,-1521.05C290.4,-1528.15 108.4,-1542.27 67.75,-1502 44.94,-1479.4 31.91,-998.14 28.75,-866.2"/>
<polygon fill="black" stroke="black" points="32.25,-865.83 28.51,-855.92 25.25,-866 32.25,-865.83"/>
<text text-anchor="middle" x="208.94" y="-1532.8" font-family="Times,serif" font-size="14.00">Σ&#45;t</text>
</g>
<!-- q20 -->
<g id="node18" class="node">
<title>q20</title>
<ellipse fill="none" stroke="black" cx="505.93" cy="-1518" rx="28.7" ry="28.7"/>
<text text-anchor="middle" x="505.93" y="-1514.3" font-family="Times,serif" font-size="14.00">q20</text>
</g>
<!-- q19&#45;&gt;q20 -->
<g id="edge37" class="edge">
<title>q19&#45;&gt;q20</title>
<path fill="none" stroke="black" d="M417.62,-1518C432.48,-1518 450.97,-1518 467.1,-1518"/>
<polygon fill="black" stroke="black" points="467.3,-1521.5 477.3,-1518 467.3,-1514.5 467.3,-1521.5"/>
<text text-anchor="middle" x="447.33" y="-1521.8" font-family="Times,serif" font-size="14.00">t</text>
</g>
<!-- q20&#45;&gt;q0 -->
<g id="edge44" class="edge">
<title>q20&#45;&gt;q0</title>
<path fill="none" stroke="black" d="M480.53,-1531.81C463.44,-1540.67 439.73,-1551.35 417.33,-1556 340.95,-1571.85 116.2,-1585.14 67.75,-1524 26.6,-1472.07 26.85,-996.74 27.71,-866.09"/>
<polygon fill="black" stroke="black" points="31.21,-865.94 27.78,-855.91 24.21,-865.89 31.21,-865.94"/>
<text text-anchor="middle" x="267.54" y="-1572.8" font-family="Times,serif" font-size="14.00">Σ&#45;i</text>
</g>
<!-- q21 -->
<g id="node19" class="node">
<title>q21</title>
<ellipse fill="none" stroke="black" cx="609.13" cy="-1478" rx="28.7" ry="28.7"/>
<text text-anchor="middle" x="609.13" y="-1474.3" font-family="Times,serif" font-size="14.00">q21</text>
</g>
<!-- q20&#45;&gt;q21 -->
<g id="edge38" class="edge">
<title>q20&#45;&gt;q21</title>
<path fill="none" stroke="black" d="M532.73,-1507.8C544.98,-1502.96 559.81,-1497.1 573.06,-1491.86"/>
<polygon fill="black" stroke="black" points="574.36,-1495.11 582.37,-1488.18 571.79,-1488.6 574.36,-1495.11"/>
<text text-anchor="middle" x="557.53" y="-1502.8" font-family="Times,serif" font-size="14.00">i</text>
</g>
<!-- q21&#45;&gt;q0 -->
<g id="edge45" class="edge">
<title>q21&#45;&gt;q0</title>
<path fill="none" stroke="black" d="M580.22,-1478.32C490.35,-1479.11 209.3,-1479.67 121.75,-1457 95.77,-1450.27 82.61,-1452.34 67.75,-1430 36.48,-1382.98 29.65,-985.06 28.31,-866.32"/>
<polygon fill="black" stroke="black" points="31.8,-866 28.19,-856.03 24.8,-866.07 31.8,-866"/>
<text text-anchor="middle" x="328.14" y="-1479.8" font-family="Times,serif" font-size="14.00">Σ&#45;m</text>
</g>
<!-- q22 -->
<g id="node20" class="node">
<title>q22</title>
<ellipse fill="none" stroke="black" cx="716.32" cy="-1478" rx="28.7" ry="28.7"/>
<text text-anchor="middle" x="716.32" y="-1474.3" font-family="Times,serif" font-size="14.00">q22</text>
</g>
<!-- q21&#45;&gt;q22 -->
<g id="edge39" class="edge">
<title>q21&#45;&gt;q22</title>
<path fill="none" stroke="black" d="M637.76,-1478C649.87,-1478 664.27,-1478 677.36,-1478"/>
<polygon fill="black" stroke="black" points="677.5,-1481.5 687.5,-1478 677.5,-1474.5 677.5,-1481.5"/>
<text text-anchor="middle" x="662.72" y="-1481.8" font-family="Times,serif" font-size="14.00">m</text>
</g>
<!-- q22&#45;&gt;q0 -->
<g id="edge46" class="edge">
<title>q22&#45;&gt;q0</title>
<path fill="none" stroke="black" d="M705.26,-1451.45C690.25,-1416.93 658.47,-1361 610.13,-1361 446.33,-1361 446.33,-1361 446.33,-1361 269.29,-1361 96.27,-1313.14 67.75,-1272 44.74,-1238.81 32.65,-961.88 29.12,-865.73"/>
<polygon fill="black" stroke="black" points="32.61,-865.57 28.75,-855.7 25.62,-865.82 32.61,-865.57"/>
<text text-anchor="middle" x="388.74" y="-1363.8" font-family="Times,serif" font-size="14.00">Σ&#45;a</text>
</g>
<!-- q23 -->
<g id="node21" class="node">
<title>q23</title>
<ellipse fill="none" stroke="black" cx="818.51" cy="-1562" rx="28.7" ry="28.7"/>
<text text-anchor="middle" x="818.51" y="-1558.3" font-family="Times,serif" font-size="14.00">q23</text>
</g>
<!-- q22&#45;&gt;q23 -->
<g id="edge40" class="edge">
<title>q22&#45;&gt;q23</title>
<path fill="none" stroke="black" d="M739.06,-1496.23C753.47,-1508.31 772.55,-1524.3 788.28,-1537.49"/>
<polygon fill="black" stroke="black" points="786.25,-1540.35 796.16,-1544.1 790.75,-1534.99 786.25,-1540.35"/>
<text text-anchor="middle" x="767.42" y="-1525.8" font-family="Times,serif" font-size="14.00">a</text>
</g>
<!-- q23&#45;&gt;q0 -->
<g id="edge47" class="edge">
<title>q23&#45;&gt;q0</title>
<path fill="none" stroke="black" d="M796.53,-1580.84C777.34,-1596.07 747.43,-1615 717.32,-1615 149.35,-1615 149.35,-1615 149.35,-1615 102.7,-1615 89,-1590.52 67.75,-1549 36.44,-1487.83 29.57,-999.57 28.27,-866.43"/>
<polygon fill="black" stroke="black" points="31.77,-866.03 28.18,-856.06 24.77,-866.09 31.77,-866.03"/>
<text text-anchor="middle" x="447.33" y="-1618.8" font-family="Times,serif" font-size="14.00">Σ</text>
</g>
<!-- q24&#45;&gt;q0 -->
<g id="edge55" class="edge">
<title>q24&#45;&gt;q0</title>
<path fill="none" stroke="black" d="M360.01,-1259.21C289.9,-1261.63 108.2,-1263.75 67.75,-1223 42.78,-1197.85 32.13,-955.46 29.03,-865.98"/>
<polygon fill="black" stroke="black" points="32.52,-865.72 28.68,-855.85 25.52,-865.96 32.52,-865.72"/>
<text text-anchor="middle" x="208.94" y="-1261.8" font-family="Times,serif" font-size="14.00">Σ&#45;l</text>
</g>
<!-- q25 -->
<g id="node23" class="node">
<title>q25</title>
<ellipse fill="none" stroke="black" cx="505.93" cy="-1234" rx="28.7" ry="28.7"/>
<text text-anchor="middle" x="505.93" y="-1230.3" font-family="Times,serif" font-size="14.00">q25</text>
</g>
<!-- q24&#45;&gt;q25 -->
<g id="edge49" class="edge">
<title>q24&#45;&gt;q25</title>
<path fill="none" stroke="black" d="M417.03,-1252.31C432.24,-1249.14 451.39,-1245.16 467.93,-1241.71"/>
<polygon fill="black" stroke="black" points="468.75,-1245.11 477.83,-1239.65 467.32,-1238.26 468.75,-1245.11"/>
<text text-anchor="middle" x="447.33" y="-1251.8" font-family="Times,serif" font-size="14.00">l</text>
</g>
<!-- q25&#45;&gt;q0 -->
<g id="edge56" class="edge">
<title>q25&#45;&gt;q0</title>
<path fill="none" stroke="black" d="M477.35,-1229.33C460.12,-1226.48 437.46,-1222.85 417.33,-1220 262.33,-1198.09 178.03,-1288.1 67.75,-1177 46.04,-1155.13 33.61,-947.67 29.52,-865.9"/>
<polygon fill="black" stroke="black" points="33.01,-865.71 29.03,-855.9 26.02,-866.06 33.01,-865.71"/>
<text text-anchor="middle" x="267.54" y="-1233.8" font-family="Times,serif" font-size="14.00">Σ&#45;a</text>
</g>
<!-- q26 -->
<g id="node24" class="node">
<title>q26</title>
<ellipse fill="none" stroke="black" cx="609.13" cy="-1234" rx="28.7" ry="28.7"/>
<text text-anchor="middle" x="609.13" y="-1230.3" font-family="Times,serif" font-size="14.00">q26</text>
</g>
<!-- q25&#45;&gt;q26 -->
<g id="edge50" class="edge">
<title>q25&#45;&gt;q26</title>
<path fill="none" stroke="black" d="M534.58,-1234C545.63,-1234 558.52,-1234 570.4,-1234"/>
<polygon fill="black" stroke="black" points="570.51,-1237.5 580.51,-1234 570.51,-1230.5 570.51,-1237.5"/>
<text text-anchor="middle" x="557.53" y="-1237.8" font-family="Times,serif" font-size="14.00">a</text>
</g>
<!-- q26&#45;&gt;q0 -->
<g id="edge57" class="edge">
<title>q26&#45;&gt;q0</title>
<path fill="none" stroke="black" d="M584.34,-1248.41C570.28,-1256.37 551.88,-1265.87 534.53,-1272 484.39,-1289.7 470.23,-1290.64 417.33,-1296 339.26,-1303.91 116.63,-1307.39 67.75,-1246 44.25,-1216.49 32.6,-958.79 29.13,-866.06"/>
<polygon fill="black" stroke="black" points="32.62,-865.72 28.76,-855.85 25.63,-865.97 32.62,-865.72"/>
<text text-anchor="middle" x="328.14" y="-1303.8" font-family="Times,serif" font-size="14.00">Σ&#45;c</text>
</g>
<!-- q27 -->
<g id="node25" class="node">
<title>q27</title>
<ellipse fill="none" stroke="black" cx="716.32" cy="-1029" rx="28.7" ry="28.7"/>
<text text-anchor="middle" x="716.32" y="-1025.3" font-family="Times,serif" font-size="14.00">q27</text>
</g>
<!-- q26&#45;&gt;q27 -->
<g id="edge51" class="edge">
<title>q26&#45;&gt;q27</title>
<path fill="none" stroke="black" d="M623.02,-1208.86C641.75,-1172.36 676.54,-1104.57 697.65,-1063.44"/>
<polygon fill="black" stroke="black" points="700.86,-1064.84 702.32,-1054.34 694.64,-1061.64 700.86,-1064.84"/>
<text text-anchor="middle" x="662.72" y="-1146.8" font-family="Times,serif" font-size="14.00">c</text>
</g>
<!-- q27&#45;&gt;q0 -->
<g id="edge58" class="edge">
<title>q27&#45;&gt;q0</title>
<path fill="none" stroke="black" d="M687.72,-1024.53C666.55,-1021.48 636.57,-1018 610.13,-1018 446.33,-1018 446.33,-1018 446.33,-1018 278.05,-1018 196.84,-1119.95 67.75,-1012 45.77,-993.62 35.05,-912.61 30.62,-866.12"/>
<polygon fill="black" stroke="black" points="34.08,-865.57 29.7,-855.93 27.11,-866.2 34.08,-865.57"/>
<text text-anchor="middle" x="388.74" y="-1029.8" font-family="Times,serif" font-size="14.00">Σ&#45;i</text>
</g>
<!-- q28 -->
<g id="node26" class="node">
<title>q28</title>
<ellipse fill="none" stroke="black" cx="818.51" cy="-995" rx="28.7" ry="28.7"/>
<text text-anchor="middle" x="818.51" y="-991.3" font-family="Times,serif" font-size="14.00">q28</text>
</g>
<!-- q27&#45;&gt;q28 -->
<g id="edge52" class="edge">
<title>q27&#45;&gt;q28</title>
<path fill="none" stroke="black" d="M743.65,-1020.07C755.17,-1016.15 768.89,-1011.5 781.35,-1007.27"/>
<polygon fill="black" stroke="black" points="782.67,-1010.52 791.02,-1003.99 780.42,-1003.89 782.67,-1010.52"/>
<text text-anchor="middle" x="767.42" y="-1016.8" font-family="Times,serif" font-size="14.00">i</text>
</g>
<!-- q28&#45;&gt;q0 -->
<g id="edge59" class="edge">
<title>q28&#45;&gt;q0</title>
<path fill="none" stroke="black" d="M791.1,-985.51C771.11,-979.18 742.84,-972 717.32,-972 446.33,-972 446.33,-972 446.33,-972 52.96,-972 130.57,-1003.41 67.75,-944 46.15,-923.57 36.26,-890.59 31.75,-865.88"/>
<polygon fill="black" stroke="black" points="35.18,-865.17 30.13,-855.85 28.27,-866.29 35.18,-865.17"/>
<text text-anchor="middle" x="447.33" y="-975.8" font-family="Times,serif" font-size="14.00">Σ&#45;ó</text>
</g>
<!-- q29 -->
<g id="node27" class="node">
<title>q29</title>
<ellipse fill="none" stroke="black" cx="925.71" cy="-995" rx="28.7" ry="28.7"/>
<text text-anchor="middle" x="925.71" y="-991.3" font-family="Times,serif" font-size="14.00">q29</text>
</g>
<!-- q28&#45;&gt;q29 -->
<g id="edge53" class="edge">
<title>q28&#45;&gt;q29</title>
<path fill="none" stroke="black" d="M847.15,-995C859.26,-995 873.66,-995 886.75,-995"/>
<polygon fill="black" stroke="black" points="886.89,-998.5 896.89,-995 886.89,-991.5 886.89,-998.5"/>
<text text-anchor="middle" x="870.11" y="-998.8" font-family="Times,serif" font-size="14.00">ó</text>
</g>
<!-- q29&#45;&gt;q0 -->
<g id="edge60" class="edge">
<title>q29&#45;&gt;q0</title>
<path fill="none" stroke="black" d="M923.26,-1023.62C916.44,-1151.09 885.07,-1661 819.51,-1661 149.35,-1661 149.35,-1661 149.35,-1661 100.98,-1661 88.79,-1632.55 67.75,-1589 36.01,-1523.33 29.43,-1003.09 28.24,-866.01"/>
<polygon fill="black" stroke="black" points="31.74,-865.7 28.15,-855.73 24.74,-865.76 31.74,-865.7"/>
<text text-anchor="middle" x="505.93" y="-1664.8" font-family="Times,serif" font-size="14.00">Σ&#45;n</text>
</g>
<!-- q30 -->
<g id="node28" class="node">
<title>q30</title>
<ellipse fill="none" stroke="black" cx="1032.9" cy="-379" rx="28.7" ry="28.7"/>
<text text-anchor="middle" x="1032.9" y="-375.3" font-family="Times,serif" font-size="14.00">q30</text>
</g>
<!-- q29&#45;&gt;q30 -->
<g id="edge54" class="edge">
<title>q29&#45;&gt;q30</title>
<path fill="none" stroke="black" d="M931.5,-966.93C948.5,-867.42 1005.89,-531.34 1025.37,-417.26"/>
<polygon fill="black" stroke="black" points="1028.85,-417.68 1027.08,-407.23 1021.95,-416.5 1028.85,-417.68"/>
<text text-anchor="middle" x="981.31" y="-690.8" font-family="Times,serif" font-size="14.00">n</text>
</g>
<!-- q30&#45;&gt;q0 -->
<g id="edge61" class="edge">
<title>q30&#45;&gt;q0</title>
<path fill="none" stroke="black" d="M1004.83,-372.58C983.69,-368.13 953.5,-363 926.71,-363 149.35,-363 149.35,-363 149.35,-363 109.15,-363 90.72,-369.02 67.75,-402 45.16,-434.43 32.85,-704.66 29.18,-799.92"/>
<polygon fill="black" stroke="black" points="25.68,-800.01 28.8,-810.13 32.67,-800.27 25.68,-800.01"/>
<text text-anchor="middle" x="557.53" y="-366.8" font-family="Times,serif" font-size="14.00">Σ</text>
</g>
<!-- q32 -->
<g id="node30" class="node">
<title>q32</title>
<ellipse fill="none" stroke="black" cx="267.54" cy="-171" rx="28.7" ry="28.7"/>
<text text-anchor="middle" x="267.54" y="-167.3" font-family="Times,serif" font-size="14.00">q32</text>
</g>
<!-- q31&#45;&gt;q32 -->
<g id="edge63" class="edge">
<title>q31&#45;&gt;q32</title>
<path fill="none" stroke="black" d="M178.65,-187.02C193.74,-184.27 212.72,-180.81 229.18,-177.81"/>
<polygon fill="black" stroke="black" points="229.83,-181.25 239.04,-176.01 228.57,-174.36 229.83,-181.25"/>
<text text-anchor="middle" x="208.94" y="-186.8" font-family="Times,serif" font-size="14.00">a</text>
</g>
<!-- q32&#45;&gt;q0 -->
<g id="edge71" class="edge">
<title>q32&#45;&gt;q0</title>
<path fill="none" stroke="black" d="M242.42,-156.99C213.01,-141.85 162.22,-122.02 121.75,-139 90.16,-152.25 81.69,-162.71 67.75,-194 43.02,-249.5 31.54,-676.34 28.71,-799.71"/>
<polygon fill="black" stroke="black" points="25.21,-799.95 28.48,-810.03 32.2,-800.11 25.21,-799.95"/>
<text text-anchor="middle" x="150.35" y="-142.8" font-family="Times,serif" font-size="14.00">Σ&#45;c</text>
</g>
<!-- q33 -->
<g id="node31" class="node">
<title>q33</title>
<ellipse fill="none" stroke="black" cx="388.74" cy="-171" rx="28.7" ry="28.7"/>
<text text-anchor="middle" x="388.74" y="-167.3" font-family="Times,serif" font-size="14.00">q33</text>
</g>
<!-- q32&#45;&gt;q33 -->
<g id="edge64" class="edge">
<title>q32&#45;&gt;q33</title>
<path fill="none" stroke="black" d="M296.19,-171C312.02,-171 332.12,-171 349.46,-171"/>
<polygon fill="black" stroke="black" points="349.83,-174.5 359.83,-171 349.83,-167.5 349.83,-174.5"/>
<text text-anchor="middle" x="328.14" y="-174.8" font-family="Times,serif" font-size="14.00">c</text>
</g>
<!-- q33&#45;&gt;q0 -->
<g id="edge72" class="edge">
<title>q33&#45;&gt;q0</title>
<path fill="none" stroke="black" d="M363.24,-157.62C301.53,-125.87 139.5,-55.04 67.75,-144 26.27,-195.42 26.76,-669.63 27.69,-799.98"/>
<polygon fill="black" stroke="black" points="24.19,-800.17 27.77,-810.14 31.19,-800.11 24.19,-800.17"/>
<text text-anchor="middle" x="208.94" y="-109.8" font-family="Times,serif" font-size="14.00">Σ&#45;h</text>
</g>
<!-- q34 -->
<g id="node32" class="node">
<title>q34</title>
<ellipse fill="none" stroke="black" cx="505.93" cy="-206" rx="28.7" ry="28.7"/>
<text text-anchor="middle" x="505.93" y="-202.3" font-family="Times,serif" font-size="14.00">q34</text>
</g>
<!-- q33&#45;&gt;q34 -->
<g id="edge65" class="edge">
<title>q33&#45;&gt;q34</title>
<path fill="none" stroke="black" d="M416.45,-179.12C432.01,-183.84 451.83,-189.87 468.77,-195.01"/>
<polygon fill="black" stroke="black" points="467.77,-198.37 478.36,-197.93 469.81,-191.67 467.77,-198.37"/>
<text text-anchor="middle" x="447.33" y="-194.8" font-family="Times,serif" font-size="14.00">h</text>
</g>
<!-- q34&#45;&gt;q0 -->
<g id="edge73" class="edge">
<title>q34&#45;&gt;q0</title>
<path fill="none" stroke="black" d="M477.27,-209.28C383.38,-220.54 81.8,-257.76 67.75,-273 31.99,-311.79 28.28,-685.54 27.99,-799.91"/>
<polygon fill="black" stroke="black" points="24.49,-800.14 27.97,-810.15 31.49,-800.16 24.49,-800.14"/>
<text text-anchor="middle" x="267.54" y="-243.8" font-family="Times,serif" font-size="14.00">Σ&#45;i</text>
</g>
<!-- q35 -->
<g id="node33" class="node">
<title>q35</title>
<ellipse fill="none" stroke="black" cx="609.13" cy="-206" rx="28.7" ry="28.7"/>
<text text-anchor="middle" x="609.13" y="-202.3" font-family="Times,serif" font-size="14.00">q35</text>
</g>
<!-- q34&#45;&gt;q35 -->
<g id="edge66" class="edge">
<title>q34&#45;&gt;q35</title>
<path fill="none" stroke="black" d="M534.58,-206C545.63,-206 558.52,-206 570.4,-206"/>
<polygon fill="black" stroke="black" points="570.51,-209.5 580.51,-206 570.51,-202.5 570.51,-209.5"/>
<text text-anchor="middle" x="557.53" y="-209.8" font-family="Times,serif" font-size="14.00">i</text>
</g>
<!-- q35&#45;&gt;q0 -->
<g id="edge74" class="edge">
<title>q35&#45;&gt;q0</title>
<path fill="none" stroke="black" d="M592.61,-229.86C574.99,-253.76 543.84,-287 506.93,-287 149.35,-287 149.35,-287 149.35,-287 111.54,-287 91.53,-281.62 67.75,-311 37,-348.99 29.86,-691.63 28.37,-800.18"/>
<polygon fill="black" stroke="black" points="24.87,-800.18 28.23,-810.22 31.86,-800.27 24.87,-800.18"/>
<text text-anchor="middle" x="328.14" y="-290.8" font-family="Times,serif" font-size="14.00">Σ&#45;s</text>
</g>
<!-- q36 -->
<g id="node34" class="node">
<title>q36</title>
<ellipse fill="none" stroke="black" cx="716.32" cy="-106" rx="28.7" ry="28.7"/>
<text text-anchor="middle" x="716.32" y="-102.3" font-family="Times,serif" font-size="14.00">q36</text>
</g>
<!-- q35&#45;&gt;q36 -->
<g id="edge67" class="edge">
<title>q35&#45;&gt;q36</title>
<path fill="none" stroke="black" d="M630.41,-186.72C646.71,-171.22 669.77,-149.3 687.74,-132.22"/>
<polygon fill="black" stroke="black" points="690.26,-134.65 695.1,-125.22 685.44,-129.57 690.26,-134.65"/>
<text text-anchor="middle" x="662.72" y="-164.8" font-family="Times,serif" font-size="14.00">s</text>
</g>
<!-- q36&#45;&gt;q0 -->
<g id="edge75" class="edge">
<title>q36&#45;&gt;q0</title>
<path fill="none" stroke="black" d="M695.48,-86.35C675.63,-68.86 643.34,-46 610.13,-46 149.35,-46 149.35,-46 149.35,-46 102.42,-46 88.97,-71.15 67.75,-113 36.47,-174.7 29.57,-666.61 28.27,-799.83"/>
<polygon fill="black" stroke="black" points="24.77,-800.16 28.17,-810.2 31.77,-800.23 24.77,-800.16"/>
<text text-anchor="middle" x="388.74" y="-49.8" font-family="Times,serif" font-size="14.00">Σ&#45;t</text>
</g>
<!-- q37 -->
<g id="node35" class="node">
<title>q37</title>
<ellipse fill="none" stroke="black" cx="818.51" cy="-106" rx="28.7" ry="28.7"/>
<text text-anchor="middle" x="818.51" y="-102.3" font-family="Times,serif" font-size="14.00">q37</text>
</g>
<!-- q36&#45;&gt;q37 -->
<g id="edge68" class="edge">
<title>q36&#45;&gt;q37</title>
<path fill="none" stroke="black" d="M744.96,-106C755.61,-106 767.96,-106 779.41,-106"/>
<polygon fill="black" stroke="black" points="779.61,-109.5 789.61,-106 779.61,-102.5 779.61,-109.5"/>
<text text-anchor="middle" x="767.42" y="-109.8" font-family="Times,serif" font-size="14.00">t</text>
</g>
<!-- q37&#45;&gt;q0 -->
<g id="edge76" class="edge">
<title>q37&#45;&gt;q0</title>
<path fill="none" stroke="black" d="M817.16,-134.63C814.77,-193.99 800.11,-325 717.32,-325 149.35,-325 149.35,-325 149.35,-325 111.54,-325 91.62,-319.69 67.75,-349 39.37,-383.85 30.69,-696.36 28.58,-799.87"/>
<polygon fill="black" stroke="black" points="25.08,-799.98 28.38,-810.05 32.08,-800.12 25.08,-799.98"/>
<text text-anchor="middle" x="447.33" y="-328.8" font-family="Times,serif" font-size="14.00">Σ&#45;a</text>
</g>
<!-- q38 -->
<g id="node39" class="node">
<title>q38</title>
<ellipse fill="none" stroke="black" cx="925.71" cy="-72" rx="28.68" ry="28.68"/>
<ellipse fill="none" stroke="black" cx="925.71" cy="-72" rx="32.7" ry="32.7"/>
<text text-anchor="middle" x="925.71" y="-68.3" font-family="Times,serif" font-size="14.00">q38</text>
</g>
<!-- q37&#45;&gt;q38 -->
<g id="edge69" class="edge">
<title>q37&#45;&gt;q38</title>
<path fill="none" stroke="black" d="M846.06,-97.42C857.8,-93.63 871.85,-89.08 884.81,-84.9"/>
<polygon fill="black" stroke="black" points="886.01,-88.19 894.45,-81.78 883.86,-81.53 886.01,-88.19"/>
<text text-anchor="middle" x="870.11" y="-95.8" font-family="Times,serif" font-size="14.00">a</text>
</g>
<!-- q5&#45;&gt;q0 -->
<g id="edge15" class="edge">
<title>q5&#45;&gt;q0</title>
<path fill="none" stroke="black" d="M583.44,-1150.68C563.12,-1156.32 533.43,-1163 506.93,-1163 149.35,-1163 149.35,-1163 149.35,-1163 102.42,-1163 90.93,-1136.8 67.75,-1096 45.74,-1057.27 34.33,-927.56 30.04,-865.98"/>
<polygon fill="black" stroke="black" points="33.51,-865.41 29.35,-855.66 26.53,-865.88 33.51,-865.41"/>
<text text-anchor="middle" x="328.14" y="-1166.8" font-family="Times,serif" font-size="14.00">Σ</text>
</g>
<!-- q9&#45;&gt;q0 -->
<g id="edge19" class="edge">
<title>q9&#45;&gt;q0</title>
<path fill="none" stroke="black" d="M692.73,-904.94C671.95,-915.61 639.94,-929 610.13,-929 446.33,-929 446.33,-929 446.33,-929 379.37,-929 363.05,-938.33 296.14,-941 270.74,-942.01 263.74,-946.57 238.94,-941 167.03,-924.85 92.47,-878.42 54.18,-851.99"/>
<polygon fill="black" stroke="black" points="55.89,-848.92 45.69,-846.05 51.88,-854.65 55.89,-848.92"/>
<text text-anchor="middle" x="388.74" y="-938.8" font-family="Times,serif" font-size="14.00">Σ</text>
</g>
<!-- q16&#45;&gt;q0 -->
<g id="edge33" class="edge">
<title>q16&#45;&gt;q0</title>
<path fill="none" stroke="black" d="M894.22,-705.84C873.41,-711.7 845.08,-718 819.51,-718 327.14,-718 327.14,-718 327.14,-718 211.18,-718 161.79,-678.17 67.75,-746 49.94,-758.85 39.92,-781.63 34.4,-800.67"/>
<polygon fill="black" stroke="black" points="30.98,-799.92 31.84,-810.48 37.75,-801.69 30.98,-799.92"/>
<text text-anchor="middle" x="505.93" y="-721.8" font-family="Times,serif" font-size="14.00">Σ</text>
</g>
<!-- q38&#45;&gt;q0 -->
<g id="edge77" class="edge">
<title>q38&#45;&gt;q0</title>
<path fill="none" stroke="black" d="M904.53,-47.22C885.15,-26.39 853.82,0 819.51,0 149.35,0 149.35,0 149.35,0 105.36,0 89.23,-17.62 67.75,-56 31.06,-121.55 28.12,-659.89 27.98,-799.85"/>
<polygon fill="black" stroke="black" points="24.48,-799.96 27.97,-809.96 31.48,-799.96 24.48,-799.96"/>
<text text-anchor="middle" x="505.93" y="-3.8" font-family="Times,serif" font-size="14.00">Σ</text>
</g>
</g>
</svg>
