<?xml version="1.0" encoding="UTF-8" standalone="no"?>
<!DOCTYPE svg PUBLIC "-//W3C//DTD SVG 1.1//EN"
 "http://www.w3.org/Graphics/SVG/1.1/DTD/svg11.dtd">
<!-- Generated by graphviz version 2.43.0 (0)
 -->
<!-- Title: AFD Pages: 1 -->
<svg width="232pt" height="360pt"
 viewBox="0.00 0.00 232.11 360.00" xmlns="http://www.w3.org/2000/svg" xmlns:xlink="http://www.w3.org/1999/xlink">
<g id="graph0" class="graph" transform="scale(0.21 0.21) rotate(0) translate(4 1679.6)">
<title>AFD</title>
<polygon fill="white" stroke="transparent" points="-4,4 -4,-1679.6 1081.5,-1679.6 1081.5,4 -4,4"/>
<!-- q0 -->
<g id="node1" class="node">
<title>q0</title>
<ellipse fill="none" stroke="black" cx="27" cy="-862.6" rx="23" ry="23"/>
<text text-anchor="middle" x="27" y="-858.9" font-family="Times,serif" font-size="14.00">q0</text>
</g>
<!-- q0&#45;&gt;q0 -->
<g id="edge1" class="edge">
<title>q0&#45;&gt;q0</title>
<path fill="none" stroke="black" d="M16.51,-883.14C14.89,-893.77 18.39,-903.35 27,-903.35 32.65,-903.35 36.1,-899.22 37.35,-893.38"/>
<polygon fill="black" stroke="black" points="40.85,-893.19 37.49,-883.14 33.85,-893.09 40.85,-893.19"/>
<text text-anchor="middle" x="27" y="-907.15" font-family="Times,serif" font-size="14.00">Σ&#45;a&#45;v&#45;m</text>
</g>
<!-- q1 -->
<g id="node2" class="node">
<title>q1</title>
<ellipse fill="none" stroke="black" cx="150.35" cy="-1352.6" rx="23" ry="23"/>
<text text-anchor="middle" x="150.35" y="-1348.9" font-family="Times,serif" font-size="14.00">q1</text>
</g>
<!-- q0&#45;&gt;q1 -->
<g id="edge2" class="edge">
<title>q0&#45;&gt;q1</title>
<path fill="none" stroke="black" d="M28.11,-885.35C28.78,-977.32 33.57,-1318.31 67.75,-1350.6 80.88,-1363.01 101.18,-1363.55 118.25,-1360.97"/>
<polygon fill="black" stroke="black" points="119.2,-1364.35 128.36,-1359.04 117.88,-1357.47 119.2,-1364.35"/>
<text text-anchor="middle" x="85.75" y="-1365.4" font-family="Times,serif" font-size="14.00">a</text>
</g>
<!-- q17 -->
<g id="node15" class="node">
<title>q17</title>
<ellipse fill="none" stroke="black" cx="150.35" cy="-767.6" rx="28.7" ry="28.7"/>
<text text-anchor="middle" x="150.35" y="-763.9" font-family="Times,serif" font-size="14.00">q17</text>
</g>
<!-- q0&#45;&gt;q17 -->
<g id="edge34" class="edge">
<title>q0&#45;&gt;q17</title>
<path fill="none" stroke="black" d="M35.9,-841.47C42.4,-826.74 52.96,-807.63 67.75,-795.6 80.4,-785.31 97.05,-778.7 112,-774.52"/>
<polygon fill="black" stroke="black" points="113.18,-777.83 122.02,-771.98 111.47,-771.04 113.18,-777.83"/>
<text text-anchor="middle" x="85.75" y="-799.4" font-family="Times,serif" font-size="14.00">v</text>
</g>
<!-- q31 -->
<g id="node27" class="node">
<title>q31</title>
<ellipse fill="none" stroke="black" cx="150.35" cy="-282.6" rx="28.7" ry="28.7"/>
<text text-anchor="middle" x="150.35" y="-278.9" font-family="Times,serif" font-size="14.00">q31</text>
</g>
<!-- q0&#45;&gt;q31 -->
<g id="edge62" class="edge">
<title>q0&#45;&gt;q31</title>
<path fill="none" stroke="black" d="M28.18,-839.56C29.16,-740.4 35.07,-353.04 67.75,-310.6 78.17,-297.07 95.49,-290.03 111.5,-286.39"/>
<polygon fill="black" stroke="black" points="112.57,-289.75 121.75,-284.46 111.27,-282.88 112.57,-289.75"/>
<text text-anchor="middle" x="85.75" y="-314.4" font-family="Times,serif" font-size="14.00">m</text>
</g>
<!-- q1&#45;&gt;q0 -->
<g id="edge11" class="edge">
<title>q1&#45;&gt;q0</title>
<path fill="none" stroke="black" d="M129.37,-1343.41C105.84,-1332.49 69.67,-1315.39 67.75,-1312.6 44.3,-1278.44 32.48,-994.02 29.07,-895.8"/>
<polygon fill="black" stroke="black" points="32.56,-895.44 28.72,-885.56 25.56,-895.68 32.56,-895.44"/>
<text text-anchor="middle" x="85.75" y="-1334.4" font-family="Times,serif" font-size="14.00">Σ&#45;c&#45;g</text>
</g>
<!-- q2 -->
<g id="node3" class="node">
<title>q2</title>
<ellipse fill="none" stroke="black" cx="267.54" cy="-1482.6" rx="23" ry="23"/>
<text text-anchor="middle" x="267.54" y="-1478.9" font-family="Times,serif" font-size="14.00">q2</text>
</g>
<!-- q1&#45;&gt;q2 -->
<g id="edge3" class="edge">
<title>q1&#45;&gt;q2</title>
<path fill="none" stroke="black" d="M166.17,-1369.33C186.21,-1391.95 222.09,-1432.44 245.08,-1458.38"/>
<polygon fill="black" stroke="black" points="242.52,-1460.77 251.77,-1465.93 247.76,-1456.13 242.52,-1460.77"/>
<text text-anchor="middle" x="208.94" y="-1432.4" font-family="Times,serif" font-size="14.00">c</text>
</g>
<!-- q10 -->
<g id="node9" class="node">
<title>q10</title>
<ellipse fill="none" stroke="black" cx="267.54" cy="-1236.6" rx="28.7" ry="28.7"/>
<text text-anchor="middle" x="267.54" y="-1232.9" font-family="Times,serif" font-size="14.00">q10</text>
</g>
<!-- q1&#45;&gt;q10 -->
<g id="edge20" class="edge">
<title>q1&#45;&gt;q10</title>
<path fill="none" stroke="black" d="M166.88,-1336.95C185.42,-1318.28 216.74,-1286.74 239.33,-1264"/>
<polygon fill="black" stroke="black" points="242.06,-1266.22 246.62,-1256.65 237.09,-1261.28 242.06,-1266.22"/>
<text text-anchor="middle" x="208.94" y="-1308.4" font-family="Times,serif" font-size="14.00">g</text>
</g>
<!-- q2&#45;&gt;q0 -->
<g id="edge12" class="edge">
<title>q2&#45;&gt;q0</title>
<path fill="none" stroke="black" d="M245.01,-1487.36C203.79,-1495.07 113.75,-1504.85 67.75,-1455.6 29.41,-1414.56 27.53,-1014.47 27.83,-895.68"/>
<polygon fill="black" stroke="black" points="31.33,-895.41 27.86,-885.4 24.33,-895.39 31.33,-895.41"/>
<text text-anchor="middle" x="150.35" y="-1497.4" font-family="Times,serif" font-size="14.00">Σ&#45;o&#45;e</text>
</g>
<!-- q3 -->
<g id="node4" class="node">
<title>q3</title>
<ellipse fill="none" stroke="black" cx="388.74" cy="-1566.6" rx="23" ry="23"/>
<text text-anchor="middle" x="388.74" y="-1562.9" font-family="Times,serif" font-size="14.00">q3</text>
</g>
<!-- q2&#45;&gt;q3 -->
<g id="edge4" class="edge">
<title>q2&#45;&gt;q3</title>
<path fill="none" stroke="black" d="M286.64,-1495.36C306.51,-1509.35 338.59,-1531.96 361.27,-1547.95"/>
<polygon fill="black" stroke="black" points="359.27,-1550.82 369.46,-1553.72 363.3,-1545.1 359.27,-1550.82"/>
<text text-anchor="middle" x="328.14" y="-1535.4" font-family="Times,serif" font-size="14.00">o</text>
</g>
<!-- q6 -->
<g id="node6" class="node">
<title>q6</title>
<ellipse fill="none" stroke="black" cx="388.74" cy="-1477.6" rx="23" ry="23"/>
<text text-anchor="middle" x="388.74" y="-1473.9" font-family="Times,serif" font-size="14.00">q6</text>
</g>
<!-- q2&#45;&gt;q6 -->
<g id="edge7" class="edge">
<title>q2&#45;&gt;q6</title>
<path fill="none" stroke="black" d="M288.58,-1473.92C296.4,-1470.98 305.54,-1468.06 314.14,-1466.6 328.11,-1464.22 343.62,-1465.9 356.78,-1468.59"/>
<polygon fill="black" stroke="black" points="356.23,-1472.06 366.76,-1470.91 357.81,-1465.24 356.23,-1472.06"/>
<text text-anchor="middle" x="328.14" y="-1470.4" font-family="Times,serif" font-size="14.00">e</text>
</g>
<!-- q3&#45;&gt;q0 -->
<g id="edge13" class="edge">
<title>q3&#45;&gt;q0</title>
<path fill="none" stroke="black" d="M366.43,-1571.27C306.02,-1583.1 133.73,-1606.77 67.75,-1508.6 33.41,-1457.51 28.73,-1020.62 28.1,-895.79"/>
<polygon fill="black" stroke="black" points="31.6,-895.67 28.05,-885.68 24.6,-895.7 31.6,-895.67"/>
<text text-anchor="middle" x="208.94" y="-1584.4" font-family="Times,serif" font-size="14.00">Σ&#45;s</text>
</g>
<!-- q4 -->
<g id="node5" class="node">
<title>q4</title>
<ellipse fill="none" stroke="black" cx="505.93" cy="-1609.6" rx="23" ry="23"/>
<text text-anchor="middle" x="505.93" y="-1605.9" font-family="Times,serif" font-size="14.00">q4</text>
</g>
<!-- q3&#45;&gt;q4 -->
<g id="edge5" class="edge">
<title>q3&#45;&gt;q4</title>
<path fill="none" stroke="black" d="M410.99,-1572.56C424.89,-1576.65 443.38,-1582.43 459.33,-1588.6 464.72,-1590.68 470.37,-1593.09 475.79,-1595.52"/>
<polygon fill="black" stroke="black" points="474.64,-1598.84 485.19,-1599.85 477.57,-1592.49 474.64,-1598.84"/>
<text text-anchor="middle" x="447.33" y="-1592.4" font-family="Times,serif" font-size="14.00">s</text>
</g>
<!-- q4&#45;&gt;q0 -->
<g id="edge14" class="edge">
<title>q4&#45;&gt;q0</title>
<path fill="none" stroke="black" d="M483.31,-1612C460.18,-1614.35 422.41,-1617.6 389.74,-1617.6 149.35,-1617.6 149.35,-1617.6 149.35,-1617.6 99.18,-1617.6 88.81,-1585.13 67.75,-1539.6 40.58,-1480.87 30.76,-1023.74 28.53,-895.78"/>
<polygon fill="black" stroke="black" points="32.02,-895.39 28.35,-885.45 25.02,-895.51 32.02,-895.39"/>
<text text-anchor="middle" x="267.54" y="-1621.4" font-family="Times,serif" font-size="14.00">Σ&#45;o</text>
</g>
<!-- q5 -->
<g id="node34" class="node">
<title>q5</title>
<ellipse fill="none" stroke="black" cx="609.13" cy="-1640.6" rx="22.96" ry="22.96"/>
<ellipse fill="none" stroke="black" cx="609.13" cy="-1640.6" rx="27" ry="27"/>
<text text-anchor="middle" x="609.13" y="-1636.9" font-family="Times,serif" font-size="14.00">q5</text>
</g>
<!-- q4&#45;&gt;q5 -->
<g id="edge6" class="edge">
<title>q4&#45;&gt;q5</title>
<path fill="none" stroke="black" d="M527.9,-1616.02C541.1,-1620.06 558.46,-1625.38 573.65,-1630.04"/>
<polygon fill="black" stroke="black" points="572.67,-1633.4 583.25,-1632.98 574.72,-1626.7 572.67,-1633.4"/>
<text text-anchor="middle" x="557.53" y="-1629.4" font-family="Times,serif" font-size="14.00">o</text>
</g>
<!-- q6&#45;&gt;q0 -->
<g id="edge16" class="edge">
<title>q6&#45;&gt;q0</title>
<path fill="none" stroke="black" d="M374.18,-1495.27C366.01,-1504.41 354.77,-1514.67 342.14,-1519.6 284.79,-1541.98 100.28,-1533.85 67.75,-1481.6 36.67,-1431.68 29.69,-1016.38 28.31,-895.49"/>
<polygon fill="black" stroke="black" points="31.81,-895.33 28.2,-885.37 24.81,-895.41 31.81,-895.33"/>
<text text-anchor="middle" x="208.94" y="-1533.4" font-family="Times,serif" font-size="14.00">Σ&#45;c</text>
</g>
<!-- q7 -->
<g id="node7" class="node">
<title>q7</title>
<ellipse fill="none" stroke="black" cx="505.93" cy="-1429.6" rx="23" ry="23"/>
<text text-anchor="middle" x="505.93" y="-1425.9" font-family="Times,serif" font-size="14.00">q7</text>
</g>
<!-- q6&#45;&gt;q7 -->
<g id="edge8" class="edge">
<title>q6&#45;&gt;q7</title>
<path fill="none" stroke="black" d="M410.06,-1469.13C428.05,-1461.63 454.53,-1450.6 474.94,-1442.09"/>
<polygon fill="black" stroke="black" points="476.53,-1445.22 484.42,-1438.15 473.84,-1438.76 476.53,-1445.22"/>
<text text-anchor="middle" x="447.33" y="-1461.4" font-family="Times,serif" font-size="14.00">c</text>
</g>
<!-- q7&#45;&gt;q0 -->
<g id="edge17" class="edge">
<title>q7&#45;&gt;q0</title>
<path fill="none" stroke="black" d="M482.89,-1429.83C396.18,-1430.62 82.5,-1432.44 67.75,-1417.6 30.92,-1380.56 27.95,-1009.99 27.91,-895.87"/>
<polygon fill="black" stroke="black" points="31.41,-895.65 27.92,-885.65 24.41,-895.64 31.41,-895.65"/>
<text text-anchor="middle" x="267.54" y="-1433.4" font-family="Times,serif" font-size="14.00">Σ&#45;h</text>
</g>
<!-- q8 -->
<g id="node8" class="node">
<title>q8</title>
<ellipse fill="none" stroke="black" cx="609.13" cy="-1382.6" rx="23" ry="23"/>
<text text-anchor="middle" x="609.13" y="-1378.9" font-family="Times,serif" font-size="14.00">q8</text>
</g>
<!-- q7&#45;&gt;q8 -->
<g id="edge9" class="edge">
<title>q7&#45;&gt;q8</title>
<path fill="none" stroke="black" d="M526.92,-1420.31C541.75,-1413.42 562.2,-1403.93 578.87,-1396.19"/>
<polygon fill="black" stroke="black" points="580.58,-1399.25 588.17,-1391.86 577.63,-1392.9 580.58,-1399.25"/>
<text text-anchor="middle" x="557.53" y="-1410.4" font-family="Times,serif" font-size="14.00">h</text>
</g>
<!-- q8&#45;&gt;q0 -->
<g id="edge18" class="edge">
<title>q8&#45;&gt;q0</title>
<path fill="none" stroke="black" d="M586.03,-1381.22C565.53,-1380.06 534.18,-1378.6 506.93,-1378.6 266.54,-1378.6 266.54,-1378.6 266.54,-1378.6 178.18,-1378.6 130.31,-1442.99 67.75,-1380.6 33.41,-1346.35 28.71,-1003.99 28.09,-895.43"/>
<polygon fill="black" stroke="black" points="31.59,-895.37 28.04,-885.39 24.59,-895.41 31.59,-895.37"/>
<text text-anchor="middle" x="328.14" y="-1382.4" font-family="Times,serif" font-size="14.00">Σ&#45;o</text>
</g>
<!-- q9 -->
<g id="node35" class="node">
<title>q9</title>
<ellipse fill="none" stroke="black" cx="716.32" cy="-1352.6" rx="22.96" ry="22.96"/>
<ellipse fill="none" stroke="black" cx="716.32" cy="-1352.6" rx="27" ry="27"/>
<text text-anchor="middle" x="716.32" y="-1348.9" font-family="Times,serif" font-size="14.00">q9</text>
</g>
<!-- q8&#45;&gt;q9 -->
<g id="edge10" class="edge">
<title>q8&#45;&gt;q9</title>
<path fill="none" stroke="black" d="M631.16,-1376.6C645.26,-1372.58 664.17,-1367.19 680.49,-1362.53"/>
<polygon fill="black" stroke="black" points="681.59,-1365.86 690.25,-1359.75 679.67,-1359.12 681.59,-1365.86"/>
<text text-anchor="middle" x="662.72" y="-1372.4" font-family="Times,serif" font-size="14.00">o</text>
</g>
<!-- q10&#45;&gt;q0 -->
<g id="edge27" class="edge">
<title>q10&#45;&gt;q0</title>
<path fill="none" stroke="black" d="M238.96,-1233.78C189.86,-1228.18 90.3,-1213.92 67.75,-1188.6 29.71,-1145.88 26.88,-969.89 27.44,-895.75"/>
<polygon fill="black" stroke="black" points="30.94,-895.62 27.54,-885.58 23.94,-895.55 30.94,-895.62"/>
<text text-anchor="middle" x="150.35" y="-1228.4" font-family="Times,serif" font-size="14.00">Σ&#45;r</text>
</g>
<!-- q11 -->
<g id="node10" class="node">
<title>q11</title>
<ellipse fill="none" stroke="black" cx="388.74" cy="-1193.6" rx="28.7" ry="28.7"/>
<text text-anchor="middle" x="388.74" y="-1189.9" font-family="Times,serif" font-size="14.00">q11</text>
</g>
<!-- q10&#45;&gt;q11 -->
<g id="edge21" class="edge">
<title>q10&#45;&gt;q11</title>
<path fill="none" stroke="black" d="M294.7,-1227.16C311.54,-1221.08 333.66,-1213.11 352.1,-1206.45"/>
<polygon fill="black" stroke="black" points="353.42,-1209.7 361.64,-1203.01 351.04,-1203.11 353.42,-1209.7"/>
<text text-anchor="middle" x="328.14" y="-1222.4" font-family="Times,serif" font-size="14.00">r</text>
</g>
<!-- q11&#45;&gt;q0 -->
<g id="edge28" class="edge">
<title>q11&#45;&gt;q0</title>
<path fill="none" stroke="black" d="M360.06,-1193.98C290.04,-1194.34 108.55,-1191.25 67.75,-1150.6 32.54,-1115.51 27.98,-963.93 27.75,-895.88"/>
<polygon fill="black" stroke="black" points="31.25,-895.71 27.75,-885.71 24.25,-895.71 31.25,-895.71"/>
<text text-anchor="middle" x="208.94" y="-1192.4" font-family="Times,serif" font-size="14.00">Σ&#45;e</text>
</g>
<!-- q12 -->
<g id="node11" class="node">
<title>q12</title>
<ellipse fill="none" stroke="black" cx="505.93" cy="-1147.6" rx="28.7" ry="28.7"/>
<text text-anchor="middle" x="505.93" y="-1143.9" font-family="Times,serif" font-size="14.00">q12</text>
</g>
<!-- q11&#45;&gt;q12 -->
<g id="edge22" class="edge">
<title>q11&#45;&gt;q12</title>
<path fill="none" stroke="black" d="M415.59,-1183.27C431.59,-1176.88 452.36,-1168.59 469.84,-1161.61"/>
<polygon fill="black" stroke="black" points="471.18,-1164.85 479.16,-1157.89 468.58,-1158.34 471.18,-1164.85"/>
<text text-anchor="middle" x="447.33" y="-1178.4" font-family="Times,serif" font-size="14.00">e</text>
</g>
<!-- q12&#45;&gt;q0 -->
<g id="edge29" class="edge">
<title>q12&#45;&gt;q0</title>
<path fill="none" stroke="black" d="M477.54,-1143.5C454.24,-1140.37 419.87,-1136.6 389.74,-1136.6 149.35,-1136.6 149.35,-1136.6 149.35,-1136.6 110.39,-1136.6 92.24,-1134.89 67.75,-1104.6 42.23,-1073.04 32.68,-954.29 29.46,-895.7"/>
<polygon fill="black" stroke="black" points="32.94,-895.3 28.93,-885.5 25.95,-895.66 32.94,-895.3"/>
<text text-anchor="middle" x="267.54" y="-1140.4" font-family="Times,serif" font-size="14.00">Σ&#45;s</text>
</g>
<!-- q13 -->
<g id="node12" class="node">
<title>q13</title>
<ellipse fill="none" stroke="black" cx="609.13" cy="-1090.6" rx="28.7" ry="28.7"/>
<text text-anchor="middle" x="609.13" y="-1086.9" font-family="Times,serif" font-size="14.00">q13</text>
</g>
<!-- q12&#45;&gt;q13 -->
<g id="edge23" class="edge">
<title>q12&#45;&gt;q13</title>
<path fill="none" stroke="black" d="M531.17,-1133.94C544.22,-1126.6 560.51,-1117.42 574.74,-1109.4"/>
<polygon fill="black" stroke="black" points="576.74,-1112.29 583.73,-1104.34 573.3,-1106.19 576.74,-1112.29"/>
<text text-anchor="middle" x="557.53" y="-1124.4" font-family="Times,serif" font-size="14.00">s</text>
</g>
<!-- q13&#45;&gt;q0 -->
<g id="edge30" class="edge">
<title>q13&#45;&gt;q0</title>
<path fill="none" stroke="black" d="M584.12,-1076.01C564.19,-1065.3 534.7,-1052.6 506.93,-1052.6 149.35,-1052.6 149.35,-1052.6 149.35,-1052.6 111.54,-1052.6 93.79,-1056 67.75,-1028.6 49.74,-1009.64 37.67,-937.95 31.91,-895.23"/>
<polygon fill="black" stroke="black" points="35.38,-894.76 30.62,-885.3 28.44,-895.67 35.38,-894.76"/>
<text text-anchor="middle" x="328.14" y="-1056.4" font-family="Times,serif" font-size="14.00">Σ&#45;i</text>
</g>
<!-- q13&#45;&gt;q0 -->
<g id="edge70" class="edge">
<title>q13&#45;&gt;q0</title>
<path fill="none" stroke="black" d="M580.21,-1090.6C559.88,-1090.6 531.7,-1090.6 506.93,-1090.6 149.35,-1090.6 149.35,-1090.6 149.35,-1090.6 109.34,-1090.6 92.61,-1083.94 67.75,-1052.6 48.76,-1028.67 36.73,-943.35 31.33,-895.58"/>
<polygon fill="black" stroke="black" points="34.79,-894.99 30.22,-885.44 27.83,-895.76 34.79,-894.99"/>
<text text-anchor="middle" x="328.14" y="-1094.4" font-family="Times,serif" font-size="14.00">Σ&#45;a</text>
</g>
<!-- q14 -->
<g id="node13" class="node">
<title>q14</title>
<ellipse fill="none" stroke="black" cx="716.32" cy="-1090.6" rx="28.7" ry="28.7"/>
<text text-anchor="middle" x="716.32" y="-1086.9" font-family="Times,serif" font-size="14.00">q14</text>
</g>
<!-- q13&#45;&gt;q14 -->
<g id="edge24" class="edge">
<title>q13&#45;&gt;q14</title>
<path fill="none" stroke="black" d="M637.76,-1090.6C649.87,-1090.6 664.27,-1090.6 677.36,-1090.6"/>
<polygon fill="black" stroke="black" points="677.5,-1094.1 687.5,-1090.6 677.5,-1087.1 677.5,-1094.1"/>
<text text-anchor="middle" x="662.72" y="-1094.4" font-family="Times,serif" font-size="14.00">i</text>
</g>
<!-- q14&#45;&gt;q0 -->
<g id="edge31" class="edge">
<title>q14&#45;&gt;q0</title>
<path fill="none" stroke="black" d="M712.62,-1119.04C705.85,-1172.05 683.08,-1280.6 610.13,-1280.6 446.33,-1280.6 446.33,-1280.6 446.33,-1280.6 301.14,-1280.6 255.66,-1299.71 121.75,-1243.6 96.02,-1232.82 82.91,-1235.01 67.75,-1211.6 34.27,-1159.9 28.88,-972.49 28.09,-895.73"/>
<polygon fill="black" stroke="black" points="31.59,-895.63 28.01,-885.66 24.59,-895.69 31.59,-895.63"/>
<text text-anchor="middle" x="388.74" y="-1285.4" font-family="Times,serif" font-size="14.00">Σ&#45;ó</text>
</g>
<!-- q15 -->
<g id="node14" class="node">
<title>q15</title>
<ellipse fill="none" stroke="black" cx="822.51" cy="-1028.6" rx="28.7" ry="28.7"/>
<text text-anchor="middle" x="822.51" y="-1024.9" font-family="Times,serif" font-size="14.00">q15</text>
</g>
<!-- q14&#45;&gt;q15 -->
<g id="edge25" class="edge">
<title>q14&#45;&gt;q15</title>
<path fill="none" stroke="black" d="M741.22,-1076.37C755.29,-1068.01 773.27,-1057.3 788.65,-1048.15"/>
<polygon fill="black" stroke="black" points="790.56,-1051.09 797.36,-1042.97 786.98,-1045.08 790.56,-1051.09"/>
<text text-anchor="middle" x="767.42" y="-1066.4" font-family="Times,serif" font-size="14.00">ó</text>
</g>
<!-- q15&#45;&gt;q0 -->
<g id="edge32" class="edge">
<title>q15&#45;&gt;q0</title>
<path fill="none" stroke="black" d="M794.23,-1022.9C773.29,-1019.03 743.6,-1014.6 717.32,-1014.6 149.35,-1014.6 149.35,-1014.6 149.35,-1014.6 111.54,-1014.6 94.68,-1017.13 67.75,-990.6 42.21,-965.44 33.01,-924.2 29.74,-895.35"/>
<polygon fill="black" stroke="black" points="33.22,-894.95 28.78,-885.33 26.25,-895.62 33.22,-894.95"/>
<text text-anchor="middle" x="447.33" y="-1018.4" font-family="Times,serif" font-size="14.00">Σ&#45;n</text>
</g>
<!-- q16 -->
<g id="node36" class="node">
<title>q16</title>
<ellipse fill="none" stroke="black" cx="933.71" cy="-987.6" rx="28.68" ry="28.68"/>
<ellipse fill="none" stroke="black" cx="933.71" cy="-987.6" rx="32.7" ry="32.7"/>
<text text-anchor="middle" x="933.71" y="-983.9" font-family="Times,serif" font-size="14.00">q16</text>
</g>
<!-- q15&#45;&gt;q16 -->
<g id="edge26" class="edge">
<title>q15&#45;&gt;q16</title>
<path fill="none" stroke="black" d="M849.67,-1018.78C862.69,-1013.89 878.71,-1007.87 893.19,-1002.44"/>
<polygon fill="black" stroke="black" points="894.78,-1005.58 902.91,-998.79 892.32,-999.02 894.78,-1005.58"/>
<text text-anchor="middle" x="878.11" y="-1012.4" font-family="Times,serif" font-size="14.00">n</text>
</g>
<!-- q17&#45;&gt;q0 -->
<g id="edge41" class="edge">
<title>q17&#45;&gt;q0</title>
<path fill="none" stroke="black" d="M124.02,-756.18C106.72,-750.24 84.07,-746.32 67.75,-757.6 44.45,-773.69 34.8,-805.32 30.8,-829.68"/>
<polygon fill="black" stroke="black" points="27.33,-829.22 29.41,-839.61 34.26,-830.19 27.33,-829.22"/>
<text text-anchor="middle" x="85.75" y="-761.4" font-family="Times,serif" font-size="14.00">Σ&#45;i</text>
</g>
<!-- q18 -->
<g id="node16" class="node">
<title>q18</title>
<ellipse fill="none" stroke="black" cx="267.54" cy="-742.6" rx="28.7" ry="28.7"/>
<text text-anchor="middle" x="267.54" y="-738.9" font-family="Times,serif" font-size="14.00">q18</text>
</g>
<!-- q17&#45;&gt;q18 -->
<g id="edge35" class="edge">
<title>q17&#45;&gt;q18</title>
<path fill="none" stroke="black" d="M178.35,-761.74C193.55,-758.44 212.76,-754.27 229.36,-750.67"/>
<polygon fill="black" stroke="black" points="230.27,-754.05 239.3,-748.51 228.79,-747.21 230.27,-754.05"/>
<text text-anchor="middle" x="208.94" y="-760.4" font-family="Times,serif" font-size="14.00">i</text>
</g>
<!-- q18&#45;&gt;q0 -->
<g id="edge42" class="edge">
<title>q18&#45;&gt;q0</title>
<path fill="none" stroke="black" d="M241.19,-730.8C212.09,-718.85 163.06,-703.58 121.75,-714.6 95.01,-721.73 85.33,-724.23 67.75,-745.6 47.74,-769.91 37.61,-804.81 32.61,-830.16"/>
<polygon fill="black" stroke="black" points="29.15,-829.57 30.82,-840.04 36.04,-830.82 29.15,-829.57"/>
<text text-anchor="middle" x="150.35" y="-718.4" font-family="Times,serif" font-size="14.00">Σ&#45;c&#45;o</text>
</g>
<!-- q19 -->
<g id="node17" class="node">
<title>q19</title>
<ellipse fill="none" stroke="black" cx="388.74" cy="-830.6" rx="28.7" ry="28.7"/>
<text text-anchor="middle" x="388.74" y="-826.9" font-family="Times,serif" font-size="14.00">q19</text>
</g>
<!-- q18&#45;&gt;q19 -->
<g id="edge36" class="edge">
<title>q18&#45;&gt;q19</title>
<path fill="none" stroke="black" d="M295.5,-749.4C310.26,-754.02 328.3,-761.21 342.14,-771.6 351.75,-778.81 360.38,-788.55 367.48,-798.03"/>
<polygon fill="black" stroke="black" points="364.67,-800.12 373.32,-806.23 370.37,-796.06 364.67,-800.12"/>
<text text-anchor="middle" x="328.14" y="-775.4" font-family="Times,serif" font-size="14.00">c</text>
</g>
<!-- q24 -->
<g id="node21" class="node">
<title>q24</title>
<ellipse fill="none" stroke="black" cx="388.74" cy="-599.6" rx="28.7" ry="28.7"/>
<text text-anchor="middle" x="388.74" y="-595.9" font-family="Times,serif" font-size="14.00">q24</text>
</g>
<!-- q18&#45;&gt;q24 -->
<g id="edge48" class="edge">
<title>q18&#45;&gt;q24</title>
<path fill="none" stroke="black" d="M286.64,-720.88C307.03,-696.42 340.29,-656.52 363.05,-629.21"/>
<polygon fill="black" stroke="black" points="365.75,-631.44 369.46,-621.52 360.37,-626.96 365.75,-631.44"/>
<text text-anchor="middle" x="328.14" y="-687.4" font-family="Times,serif" font-size="14.00">o</text>
</g>
<!-- q19&#45;&gt;q0 -->
<g id="edge43" class="edge">
<title>q19&#45;&gt;q0</title>
<path fill="none" stroke="black" d="M359.99,-833.07C294.35,-838.9 129.79,-853.54 60.04,-859.75"/>
<polygon fill="black" stroke="black" points="59.34,-856.3 49.69,-860.67 59.96,-863.27 59.34,-856.3"/>
<text text-anchor="middle" x="208.94" y="-850.4" font-family="Times,serif" font-size="14.00">Σ&#45;t</text>
</g>
<!-- q20 -->
<g id="node18" class="node">
<title>q20</title>
<ellipse fill="none" stroke="black" cx="505.93" cy="-830.6" rx="28.7" ry="28.7"/>
<text text-anchor="middle" x="505.93" y="-826.9" font-family="Times,serif" font-size="14.00">q20</text>
</g>
<!-- q19&#45;&gt;q20 -->
<g id="edge37" class="edge">
<title>q19&#45;&gt;q20</title>
<path fill="none" stroke="black" d="M417.62,-830.6C432.48,-830.6 450.97,-830.6 467.1,-830.6"/>
<polygon fill="black" stroke="black" points="467.3,-834.1 477.3,-830.6 467.3,-827.1 467.3,-834.1"/>
<text text-anchor="middle" x="447.33" y="-834.4" font-family="Times,serif" font-size="14.00">t</text>
</g>
<!-- q20&#45;&gt;q0 -->
<g id="edge44" class="edge">
<title>q20&#45;&gt;q0</title>
<path fill="none" stroke="black" d="M480.52,-844.37C463.42,-853.2 439.72,-863.88 417.33,-868.6 280.96,-897.36 243.12,-870.15 103.75,-870.6 87.75,-870.65 83.67,-872.18 67.75,-870.6 65.02,-870.33 62.2,-869.95 59.38,-869.51"/>
<polygon fill="black" stroke="black" points="59.8,-866.03 49.34,-867.7 58.56,-872.92 59.8,-866.03"/>
<text text-anchor="middle" x="267.54" y="-885.4" font-family="Times,serif" font-size="14.00">Σ&#45;i</text>
</g>
<!-- q21 -->
<g id="node19" class="node">
<title>q21</title>
<ellipse fill="none" stroke="black" cx="609.13" cy="-798.6" rx="28.7" ry="28.7"/>
<text text-anchor="middle" x="609.13" y="-794.9" font-family="Times,serif" font-size="14.00">q21</text>
</g>
<!-- q20&#45;&gt;q21 -->
<g id="edge38" class="edge">
<title>q20&#45;&gt;q21</title>
<path fill="none" stroke="black" d="M533.52,-822.19C545.25,-818.48 559.23,-814.06 571.9,-810.05"/>
<polygon fill="black" stroke="black" points="573.24,-813.3 581.71,-806.95 571.12,-806.63 573.24,-813.3"/>
<text text-anchor="middle" x="557.53" y="-818.4" font-family="Times,serif" font-size="14.00">i</text>
</g>
<!-- q21&#45;&gt;q0 -->
<g id="edge45" class="edge">
<title>q21&#45;&gt;q0</title>
<path fill="none" stroke="black" d="M580.55,-795.81C566.75,-794.56 549.77,-793.22 534.53,-792.6 457.09,-789.45 437.26,-784.89 360.14,-792.6 228.22,-805.77 196.69,-820.79 67.75,-851.6 64.88,-852.28 61.9,-853.03 58.92,-853.81"/>
<polygon fill="black" stroke="black" points="57.71,-850.51 48.97,-856.5 59.54,-857.27 57.71,-850.51"/>
<text text-anchor="middle" x="328.14" y="-801.4" font-family="Times,serif" font-size="14.00">Σ&#45;m</text>
</g>
<!-- q22 -->
<g id="node20" class="node">
<title>q22</title>
<ellipse fill="none" stroke="black" cx="716.32" cy="-798.6" rx="28.7" ry="28.7"/>
<text text-anchor="middle" x="716.32" y="-794.9" font-family="Times,serif" font-size="14.00">q22</text>
</g>
<!-- q21&#45;&gt;q22 -->
<g id="edge39" class="edge">
<title>q21&#45;&gt;q22</title>
<path fill="none" stroke="black" d="M637.76,-798.6C649.87,-798.6 664.27,-798.6 677.36,-798.6"/>
<polygon fill="black" stroke="black" points="677.5,-802.1 687.5,-798.6 677.5,-795.1 677.5,-802.1"/>
<text text-anchor="middle" x="662.72" y="-802.4" font-family="Times,serif" font-size="14.00">m</text>
</g>
<!-- q22&#45;&gt;q0 -->
<g id="edge46" class="edge">
<title>q22&#45;&gt;q0</title>
<path fill="none" stroke="black" d="M690.6,-811.92C675.57,-819.71 655.85,-829.4 637.72,-836.6 593.09,-854.32 581.32,-857.81 534.53,-868.6 405.77,-898.28 370.94,-906.75 238.94,-900.6 162.61,-897.04 140.77,-907.13 67.75,-884.6 63.59,-883.32 59.39,-881.57 55.34,-879.61"/>
<polygon fill="black" stroke="black" points="56.76,-876.4 46.29,-874.79 53.47,-882.58 56.76,-876.4"/>
<text text-anchor="middle" x="388.74" y="-904.4" font-family="Times,serif" font-size="14.00">Σ&#45;a</text>
</g>
<!-- q23 -->
<g id="node37" class="node">
<title>q23</title>
<ellipse fill="none" stroke="black" cx="822.51" cy="-721.6" rx="28.68" ry="28.68"/>
<ellipse fill="none" stroke="black" cx="822.51" cy="-721.6" rx="32.7" ry="32.7"/>
<text text-anchor="middle" x="822.51" y="-717.9" font-family="Times,serif" font-size="14.00">q23</text>
</g>
<!-- q22&#45;&gt;q23 -->
<g id="edge40" class="edge">
<title>q22&#45;&gt;q23</title>
<path fill="none" stroke="black" d="M739.67,-782.08C753.6,-771.79 771.79,-758.35 787.48,-746.75"/>
<polygon fill="black" stroke="black" points="789.94,-749.29 795.9,-740.53 785.78,-743.66 789.94,-749.29"/>
<text text-anchor="middle" x="767.42" y="-768.4" font-family="Times,serif" font-size="14.00">a</text>
</g>
<!-- q24&#45;&gt;q0 -->
<g id="edge55" class="edge">
<title>q24&#45;&gt;q0</title>
<path fill="none" stroke="black" d="M360.2,-595.9C290.53,-587.21 109.8,-568.98 67.75,-607.6 35.85,-636.89 29.46,-767.35 28.24,-829.49"/>
<polygon fill="black" stroke="black" points="24.74,-829.5 28.08,-839.55 31.74,-829.61 24.74,-829.5"/>
<text text-anchor="middle" x="208.94" y="-587.4" font-family="Times,serif" font-size="14.00">Σ&#45;l</text>
</g>
<!-- q25 -->
<g id="node22" class="node">
<title>q25</title>
<ellipse fill="none" stroke="black" cx="505.93" cy="-561.6" rx="28.7" ry="28.7"/>
<text text-anchor="middle" x="505.93" y="-557.9" font-family="Times,serif" font-size="14.00">q25</text>
</g>
<!-- q24&#45;&gt;q25 -->
<g id="edge49" class="edge">
<title>q24&#45;&gt;q25</title>
<path fill="none" stroke="black" d="M416.16,-590.88C431.82,-585.71 451.88,-579.1 468.96,-573.46"/>
<polygon fill="black" stroke="black" points="470.22,-576.73 478.63,-570.27 468.03,-570.08 470.22,-576.73"/>
<text text-anchor="middle" x="447.33" y="-587.4" font-family="Times,serif" font-size="14.00">l</text>
</g>
<!-- q25&#45;&gt;q0 -->
<g id="edge56" class="edge">
<title>q25&#45;&gt;q0</title>
<path fill="none" stroke="black" d="M477.22,-558.73C390.22,-550.38 124.97,-530.17 67.75,-587.6 34.45,-621.02 28.83,-763.92 28.03,-829.49"/>
<polygon fill="black" stroke="black" points="24.53,-829.65 27.94,-839.69 31.53,-829.72 24.53,-829.65"/>
<text text-anchor="middle" x="267.54" y="-552.4" font-family="Times,serif" font-size="14.00">Σ&#45;a</text>
</g>
<!-- q26 -->
<g id="node23" class="node">
<title>q26</title>
<ellipse fill="none" stroke="black" cx="609.13" cy="-518.6" rx="28.7" ry="28.7"/>
<text text-anchor="middle" x="609.13" y="-514.9" font-family="Times,serif" font-size="14.00">q26</text>
</g>
<!-- q25&#45;&gt;q26 -->
<g id="edge50" class="edge">
<title>q25&#45;&gt;q26</title>
<path fill="none" stroke="black" d="M532.47,-550.75C544.81,-545.5 559.82,-539.12 573.2,-533.44"/>
<polygon fill="black" stroke="black" points="574.76,-536.58 582.6,-529.44 572.03,-530.13 574.76,-536.58"/>
<text text-anchor="middle" x="557.53" y="-544.4" font-family="Times,serif" font-size="14.00">a</text>
</g>
<!-- q26&#45;&gt;q0 -->
<g id="edge57" class="edge">
<title>q26&#45;&gt;q0</title>
<path fill="none" stroke="black" d="M580.39,-516.16C479.6,-507.98 135.1,-486.18 67.75,-563.6 33.73,-602.69 28.56,-760.04 27.96,-829.44"/>
<polygon fill="black" stroke="black" points="24.46,-829.77 27.9,-839.79 31.46,-829.81 24.46,-829.77"/>
<text text-anchor="middle" x="328.14" y="-511.4" font-family="Times,serif" font-size="14.00">Σ&#45;c</text>
</g>
<!-- q27 -->
<g id="node24" class="node">
<title>q27</title>
<ellipse fill="none" stroke="black" cx="716.32" cy="-495.6" rx="28.7" ry="28.7"/>
<text text-anchor="middle" x="716.32" y="-491.9" font-family="Times,serif" font-size="14.00">q27</text>
</g>
<!-- q26&#45;&gt;q27 -->
<g id="edge51" class="edge">
<title>q26&#45;&gt;q27</title>
<path fill="none" stroke="black" d="M637.22,-512.67C649.73,-509.94 664.79,-506.65 678.33,-503.69"/>
<polygon fill="black" stroke="black" points="679.3,-507.06 688.32,-501.5 677.8,-500.22 679.3,-507.06"/>
<text text-anchor="middle" x="662.72" y="-511.4" font-family="Times,serif" font-size="14.00">c</text>
</g>
<!-- q27&#45;&gt;q0 -->
<g id="edge58" class="edge">
<title>q27&#45;&gt;q0</title>
<path fill="none" stroke="black" d="M690.54,-482.74C669.67,-473.12 638.72,-461.6 610.13,-461.6 149.35,-461.6 149.35,-461.6 149.35,-461.6 100.39,-461.6 90.25,-492.12 67.75,-535.6 41.5,-586.32 32.01,-756.97 29.11,-829.52"/>
<polygon fill="black" stroke="black" points="25.6,-829.76 28.72,-839.88 32.59,-830.02 25.6,-829.76"/>
<text text-anchor="middle" x="388.74" y="-465.4" font-family="Times,serif" font-size="14.00">Σ&#45;i</text>
</g>
<!-- q28 -->
<g id="node25" class="node">
<title>q28</title>
<ellipse fill="none" stroke="black" cx="822.51" cy="-495.6" rx="28.7" ry="28.7"/>
<text text-anchor="middle" x="822.51" y="-491.9" font-family="Times,serif" font-size="14.00">q28</text>
</g>
<!-- q27&#45;&gt;q28 -->
<g id="edge52" class="edge">
<title>q27&#45;&gt;q28</title>
<path fill="none" stroke="black" d="M744.97,-495.6C756.74,-495.6 770.67,-495.6 783.4,-495.6"/>
<polygon fill="black" stroke="black" points="783.74,-499.1 793.74,-495.6 783.74,-492.1 783.74,-499.1"/>
<text text-anchor="middle" x="767.42" y="-499.4" font-family="Times,serif" font-size="14.00">i</text>
</g>
<!-- q28&#45;&gt;q0 -->
<g id="edge59" class="edge">
<title>q28&#45;&gt;q0</title>
<path fill="none" stroke="black" d="M816.61,-523.64C806.77,-569.77 779.91,-656.6 717.32,-656.6 446.33,-656.6 446.33,-656.6 446.33,-656.6 277.61,-656.6 169.7,-550.16 67.75,-684.6 35.48,-727.15 28.48,-790.88 27.45,-829.43"/>
<polygon fill="black" stroke="black" points="23.95,-829.54 27.31,-839.59 30.95,-829.64 23.95,-829.54"/>
<text text-anchor="middle" x="447.33" y="-660.4" font-family="Times,serif" font-size="14.00">Σ&#45;ó</text>
</g>
<!-- q29 -->
<g id="node26" class="node">
<title>q29</title>
<ellipse fill="none" stroke="black" cx="933.71" cy="-429.6" rx="28.7" ry="28.7"/>
<text text-anchor="middle" x="933.71" y="-425.9" font-family="Times,serif" font-size="14.00">q29</text>
</g>
<!-- q28&#45;&gt;q29 -->
<g id="edge53" class="edge">
<title>q28&#45;&gt;q29</title>
<path fill="none" stroke="black" d="M847.48,-481.11C862.84,-471.83 882.98,-459.65 899.83,-449.47"/>
<polygon fill="black" stroke="black" points="902.05,-452.22 908.8,-444.05 898.43,-446.23 902.05,-452.22"/>
<text text-anchor="middle" x="878.11" y="-467.4" font-family="Times,serif" font-size="14.00">ó</text>
</g>
<!-- q29&#45;&gt;q0 -->
<g id="edge60" class="edge">
<title>q29&#45;&gt;q0</title>
<path fill="none" stroke="black" d="M905.41,-425.31C883.37,-422.22 851.52,-418.6 823.51,-418.6 556.53,-418.6 556.53,-418.6 556.53,-418.6 455.46,-418.6 430.21,-415.6 329.14,-415.6 149.35,-415.6 149.35,-415.6 149.35,-415.6 104.85,-415.6 90.14,-435.15 67.75,-473.6 32.73,-533.73 28.31,-747.03 27.93,-829.61"/>
<polygon fill="black" stroke="black" points="24.43,-829.68 27.91,-839.69 31.43,-829.7 24.43,-829.68"/>
<text text-anchor="middle" x="505.93" y="-421.4" font-family="Times,serif" font-size="14.00">Σ&#45;n</text>
</g>
<!-- q30 -->
<g id="node38" class="node">
<title>q30</title>
<ellipse fill="none" stroke="black" cx="1044.9" cy="-388.6" rx="28.68" ry="28.68"/>
<ellipse fill="none" stroke="black" cx="1044.9" cy="-388.6" rx="32.7" ry="32.7"/>
<text text-anchor="middle" x="1044.9" y="-384.9" font-family="Times,serif" font-size="14.00">q30</text>
</g>
<!-- q29&#45;&gt;q30 -->
<g id="edge54" class="edge">
<title>q29&#45;&gt;q30</title>
<path fill="none" stroke="black" d="M960.86,-419.78C973.89,-414.89 989.9,-408.87 1004.38,-403.44"/>
<polygon fill="black" stroke="black" points="1005.97,-406.58 1014.11,-399.79 1003.51,-400.02 1005.97,-406.58"/>
<text text-anchor="middle" x="989.31" y="-413.4" font-family="Times,serif" font-size="14.00">n</text>
</g>
<!-- q32 -->
<g id="node28" class="node">
<title>q32</title>
<ellipse fill="none" stroke="black" cx="267.54" cy="-236.6" rx="28.7" ry="28.7"/>
<text text-anchor="middle" x="267.54" y="-232.9" font-family="Times,serif" font-size="14.00">q32</text>
</g>
<!-- q31&#45;&gt;q32 -->
<g id="edge63" class="edge">
<title>q31&#45;&gt;q32</title>
<path fill="none" stroke="black" d="M177.2,-272.27C193.2,-265.88 213.97,-257.59 231.45,-250.61"/>
<polygon fill="black" stroke="black" points="232.79,-253.85 240.77,-246.89 230.19,-247.34 232.79,-253.85"/>
<text text-anchor="middle" x="208.94" y="-267.4" font-family="Times,serif" font-size="14.00">a</text>
</g>
<!-- q32&#45;&gt;q0 -->
<g id="edge71" class="edge">
<title>q32&#45;&gt;q0</title>
<path fill="none" stroke="black" d="M239.99,-228.68C210.01,-221.22 160.39,-213.38 121.75,-229.6 90.16,-242.85 81.79,-253.35 67.75,-284.6 45.4,-334.31 32.4,-714.22 28.94,-829.52"/>
<polygon fill="black" stroke="black" points="25.43,-829.73 28.64,-839.83 32.43,-829.94 25.43,-829.73"/>
<text text-anchor="middle" x="150.35" y="-233.4" font-family="Times,serif" font-size="14.00">Σ&#45;c</text>
</g>
<!-- q33 -->
<g id="node29" class="node">
<title>q33</title>
<ellipse fill="none" stroke="black" cx="388.74" cy="-193.6" rx="28.7" ry="28.7"/>
<text text-anchor="middle" x="388.74" y="-189.9" font-family="Times,serif" font-size="14.00">q33</text>
</g>
<!-- q32&#45;&gt;q33 -->
<g id="edge64" class="edge">
<title>q32&#45;&gt;q33</title>
<path fill="none" stroke="black" d="M294.7,-227.16C311.54,-221.08 333.66,-213.11 352.1,-206.45"/>
<polygon fill="black" stroke="black" points="353.42,-209.7 361.64,-203.01 351.04,-203.11 353.42,-209.7"/>
<text text-anchor="middle" x="328.14" y="-223.4" font-family="Times,serif" font-size="14.00">c</text>
</g>
<!-- q33&#45;&gt;q0 -->
<g id="edge72" class="edge">
<title>q33&#45;&gt;q0</title>
<path fill="none" stroke="black" d="M360.72,-186.45C296.88,-171.38 136.94,-144.73 67.75,-234.6 31.32,-281.91 28.12,-706.53 27.96,-829.42"/>
<polygon fill="black" stroke="black" points="24.46,-829.7 27.96,-839.7 31.46,-829.7 24.46,-829.7"/>
<text text-anchor="middle" x="208.94" y="-176.4" font-family="Times,serif" font-size="14.00">Σ&#45;h</text>
</g>
<!-- q34 -->
<g id="node30" class="node">
<title>q34</title>
<ellipse fill="none" stroke="black" cx="505.93" cy="-147.6" rx="28.7" ry="28.7"/>
<text text-anchor="middle" x="505.93" y="-143.9" font-family="Times,serif" font-size="14.00">q34</text>
</g>
<!-- q33&#45;&gt;q34 -->
<g id="edge65" class="edge">
<title>q33&#45;&gt;q34</title>
<path fill="none" stroke="black" d="M415.59,-183.27C431.59,-176.88 452.36,-168.59 469.84,-161.61"/>
<polygon fill="black" stroke="black" points="471.18,-164.85 479.16,-157.89 468.58,-158.34 471.18,-164.85"/>
<text text-anchor="middle" x="447.33" y="-179.4" font-family="Times,serif" font-size="14.00">h</text>
</g>
<!-- q34&#45;&gt;q0 -->
<g id="edge73" class="edge">
<title>q34&#45;&gt;q0</title>
<path fill="none" stroke="black" d="M477.54,-143.5C454.24,-140.37 419.87,-136.6 389.74,-136.6 149.35,-136.6 149.35,-136.6 149.35,-136.6 103.8,-136.6 89.2,-158.42 67.75,-198.6 37.89,-254.53 30.01,-703.1 28.37,-829.53"/>
<polygon fill="black" stroke="black" points="24.87,-829.71 28.24,-839.75 31.87,-829.79 24.87,-829.71"/>
<text text-anchor="middle" x="267.54" y="-140.4" font-family="Times,serif" font-size="14.00">Σ&#45;i</text>
</g>
<!-- q35 -->
<g id="node31" class="node">
<title>q35</title>
<ellipse fill="none" stroke="black" cx="609.13" cy="-128.6" rx="28.7" ry="28.7"/>
<text text-anchor="middle" x="609.13" y="-124.9" font-family="Times,serif" font-size="14.00">q35</text>
</g>
<!-- q34&#45;&gt;q35 -->
<g id="edge66" class="edge">
<title>q34&#45;&gt;q35</title>
<path fill="none" stroke="black" d="M534.32,-142.46C545.56,-140.34 558.77,-137.86 570.87,-135.59"/>
<polygon fill="black" stroke="black" points="571.54,-139.03 580.72,-133.74 570.24,-132.15 571.54,-139.03"/>
<text text-anchor="middle" x="557.53" y="-143.4" font-family="Times,serif" font-size="14.00">i</text>
</g>
<!-- q35&#45;&gt;q0 -->
<g id="edge74" class="edge">
<title>q35&#45;&gt;q0</title>
<path fill="none" stroke="black" d="M584.12,-114.01C564.19,-103.3 534.7,-90.6 506.93,-90.6 149.35,-90.6 149.35,-90.6 149.35,-90.6 105.36,-90.6 89.31,-108.26 67.75,-146.6 34.02,-206.56 28.9,-696.75 28.13,-829.53"/>
<polygon fill="black" stroke="black" points="24.63,-829.85 28.08,-839.87 31.63,-829.89 24.63,-829.85"/>
<text text-anchor="middle" x="328.14" y="-94.4" font-family="Times,serif" font-size="14.00">Σ&#45;s</text>
</g>
<!-- q36 -->
<g id="node32" class="node">
<title>q36</title>
<ellipse fill="none" stroke="black" cx="716.32" cy="-128.6" rx="28.7" ry="28.7"/>
<text text-anchor="middle" x="716.32" y="-124.9" font-family="Times,serif" font-size="14.00">q36</text>
</g>
<!-- q35&#45;&gt;q36 -->
<g id="edge67" class="edge">
<title>q35&#45;&gt;q36</title>
<path fill="none" stroke="black" d="M637.76,-128.6C649.87,-128.6 664.27,-128.6 677.36,-128.6"/>
<polygon fill="black" stroke="black" points="677.5,-132.1 687.5,-128.6 677.5,-125.1 677.5,-132.1"/>
<text text-anchor="middle" x="662.72" y="-132.4" font-family="Times,serif" font-size="14.00">s</text>
</g>
<!-- q36&#45;&gt;q0 -->
<g id="edge75" class="edge">
<title>q36&#45;&gt;q0</title>
<path fill="none" stroke="black" d="M713.66,-157.24C708.68,-213.84 688.83,-334.6 610.13,-334.6 446.33,-334.6 446.33,-334.6 446.33,-334.6 361.96,-334.6 127.5,-304.02 67.75,-363.6 34.8,-396.45 29.16,-723.51 28.2,-829.58"/>
<polygon fill="black" stroke="black" points="24.7,-829.67 28.11,-839.7 31.7,-829.73 24.7,-829.67"/>
<text text-anchor="middle" x="388.74" y="-337.4" font-family="Times,serif" font-size="14.00">Σ&#45;t</text>
</g>
<!-- q37 -->
<g id="node33" class="node">
<title>q37</title>
<ellipse fill="none" stroke="black" cx="822.51" cy="-66.6" rx="28.7" ry="28.7"/>
<text text-anchor="middle" x="822.51" y="-62.9" font-family="Times,serif" font-size="14.00">q37</text>
</g>
<!-- q36&#45;&gt;q37 -->
<g id="edge68" class="edge">
<title>q36&#45;&gt;q37</title>
<path fill="none" stroke="black" d="M741.22,-114.37C755.29,-106.01 773.27,-95.3 788.65,-86.15"/>
<polygon fill="black" stroke="black" points="790.56,-89.09 797.36,-80.97 786.98,-83.08 790.56,-89.09"/>
<text text-anchor="middle" x="767.42" y="-105.4" font-family="Times,serif" font-size="14.00">t</text>
</g>
<!-- q37&#45;&gt;q0 -->
<g id="edge76" class="edge">
<title>q37&#45;&gt;q0</title>
<path fill="none" stroke="black" d="M794.23,-60.9C773.29,-57.03 743.6,-52.6 717.32,-52.6 149.35,-52.6 149.35,-52.6 149.35,-52.6 107.71,-52.6 89.68,-63.21 67.75,-98.6 28.89,-161.32 27.54,-690.79 27.86,-829.46"/>
<polygon fill="black" stroke="black" points="24.36,-829.5 27.89,-839.49 31.36,-829.48 24.36,-829.5"/>
<text text-anchor="middle" x="447.33" y="-56.4" font-family="Times,serif" font-size="14.00">Σ&#45;a</text>
</g>
<!-- q38 -->
<g id="node39" class="node">
<title>q38</title>
<ellipse fill="none" stroke="black" cx="933.71" cy="-32.6" rx="28.68" ry="28.68"/>
<ellipse fill="none" stroke="black" cx="933.71" cy="-32.6" rx="32.7" ry="32.7"/>
<text text-anchor="middle" x="933.71" y="-28.9" font-family="Times,serif" font-size="14.00">q38</text>
</g>
<!-- q37&#45;&gt;q38 -->
<g id="edge69" class="edge">
<title>q37&#45;&gt;q38</title>
<path fill="none" stroke="black" d="M849.95,-58.37C862.77,-54.37 878.44,-49.49 892.69,-45.06"/>
<polygon fill="black" stroke="black" points="893.76,-48.39 902.27,-42.08 891.68,-41.71 893.76,-48.39"/>
<text text-anchor="middle" x="878.11" y="-55.4" font-family="Times,serif" font-size="14.00">a</text>
</g>
<!-- q5&#45;&gt;q0 -->
<g id="edge15" class="edge">
<title>q5&#45;&gt;q0</title>
<path fill="none" stroke="black" d="M583.44,-1648.27C563.12,-1653.91 533.43,-1660.6 506.93,-1660.6 149.35,-1660.6 149.35,-1660.6 149.35,-1660.6 99.79,-1660.6 88.77,-1629.48 67.75,-1584.6 38.33,-1521.77 30.08,-1029.19 28.38,-895.81"/>
<polygon fill="black" stroke="black" points="31.87,-895.38 28.25,-885.43 24.87,-895.47 31.87,-895.38"/>
<text text-anchor="middle" x="328.14" y="-1664.4" font-family="Times,serif" font-size="14.00">Σ</text>
</g>
<!-- q9&#45;&gt;q0 -->
<g id="edge19" class="edge">
<title>q9&#45;&gt;q0</title>
<path fill="none" stroke="black" d="M690.52,-1344.78C669.37,-1338.81 638.06,-1331.6 610.13,-1331.6 327.14,-1331.6 327.14,-1331.6 327.14,-1331.6 274.93,-1331.6 87.47,-1267.39 67.75,-1237.6 30.83,-1181.82 27.52,-976.19 27.69,-895.45"/>
<polygon fill="black" stroke="black" points="31.19,-895.37 27.73,-885.35 24.19,-895.34 31.19,-895.37"/>
<text text-anchor="middle" x="388.74" y="-1335.4" font-family="Times,serif" font-size="14.00">Σ</text>
</g>
<!-- q16&#45;&gt;q0 -->
<g id="edge33" class="edge">
<title>q16&#45;&gt;q0</title>
<path fill="none" stroke="black" d="M901.82,-980.63C880.05,-976.31 850.15,-971.6 823.51,-971.6 556.53,-971.6 556.53,-971.6 556.53,-971.6 455.44,-971.6 430.22,-976.6 329.14,-976.6 149.35,-976.6 149.35,-976.6 149.35,-976.6 99.81,-976.6 62.21,-925.5 42.77,-891.73"/>
<polygon fill="black" stroke="black" points="45.68,-889.76 37.77,-882.72 39.56,-893.16 45.68,-889.76"/>
<text text-anchor="middle" x="505.93" y="-976.4" font-family="Times,serif" font-size="14.00">Σ</text>
</g>
<!-- q23&#45;&gt;q0 -->
<g id="edge47" class="edge">
<title>q23&#45;&gt;q0</title>
<path fill="none" stroke="black" d="M791.95,-709.68C771.37,-702.44 743.11,-694.6 717.32,-694.6 446.33,-694.6 446.33,-694.6 446.33,-694.6 277.81,-694.6 192.65,-602.47 67.75,-715.6 36.01,-744.34 28.52,-795.56 27.3,-829.3"/>
<polygon fill="black" stroke="black" points="23.8,-829.53 27.1,-839.6 30.8,-829.67 23.8,-829.53"/>
<text text-anchor="middle" x="447.33" y="-698.4" font-family="Times,serif" font-size="14.00">Σ</text>
</g>
<!-- q30&#45;&gt;q0 -->
<g id="edge61" class="edge">
<title>q30&#45;&gt;q0</title>
<path fill="none" stroke="black" d="M1013.02,-381.63C991.25,-377.31 961.34,-372.6 934.71,-372.6 556.53,-372.6 556.53,-372.6 556.53,-372.6 455.44,-372.6 430.22,-377.6 329.14,-377.6 149.35,-377.6 149.35,-377.6 149.35,-377.6 107.71,-377.6 90.35,-388.64 67.75,-423.6 45.85,-457.47 33.06,-733.34 29.23,-829.6"/>
<polygon fill="black" stroke="black" points="25.73,-829.52 28.84,-839.65 32.72,-829.8 25.73,-829.52"/>
<text text-anchor="middle" x="557.53" y="-376.4" font-family="Times,serif" font-size="14.00">Σ</text>
</g>
<!-- q38&#45;&gt;q0 -->
<g id="edge77" class="edge">
<title>q38&#45;&gt;q0</title>
<path fill="none" stroke="black" d="M902.47,-22.71C880.75,-16.48 850.64,-9.6 823.51,-9.6 149.35,-9.6 149.35,-9.6 149.35,-9.6 107.27,-9.6 89.53,-21.6 67.75,-57.6 27.37,-124.32 27.17,-685.35 27.8,-829.13"/>
<polygon fill="black" stroke="black" points="24.3,-829.52 27.85,-839.5 31.3,-829.49 24.3,-829.52"/>
<text text-anchor="middle" x="505.93" y="-13.4" font-family="Times,serif" font-size="14.00">Σ</text>
</g>
</g>
</svg>
